<svg width="187" height="77" viewBox="0 0 187 77" fill="none" xmlns="http://www.w3.org/2000/svg">
<path d="M80.8 61.512C80.8 61.512 80.5653 61.384 80.096 61.128C80.096 60.872 80.0747 60.5733 80.032 60.232C79.9893 59.848 79.9253 59.4213 79.84 58.952L79.648 58.376C79.648 58.3333 79.648 58.2907 79.648 58.248C79.648 58.1627 79.6693 58.0347 79.712 57.864C79.7547 57.6933 79.776 57.544 79.776 57.416C79.8187 57.288 79.84 57.2027 79.84 57.16C79.968 56.9467 80.032 56.712 80.032 56.456C80.032 55.9013 79.9467 55.624 79.776 55.624L79.648 55.688V55.368C79.6907 55.24 79.712 55.0053 79.712 54.664C79.6693 54.4507 79.6267 54.28 79.584 54.152C79.584 53.9813 79.6053 53.832 79.648 53.704L79.776 53C79.776 52.9573 79.6693 52.7227 79.456 52.296C79.4133 52.0827 79.3493 51.7627 79.264 51.336L79.456 49.864L79.136 49.16C79.136 48.8187 79.1573 48.584 79.2 48.456L79.328 48.136C79.4133 47.88 79.456 47.752 79.456 47.752C79.328 47.5387 79.2 47.2827 79.072 46.984C79.0293 46.6427 78.9867 46.28 78.944 45.896C78.944 45.512 78.944 45.1067 78.944 44.68L78.688 43.656L79.008 42.248L79.072 42.12C79.072 42.0773 79.008 41.992 78.88 41.864C78.7093 41.736 78.624 41.6507 78.624 41.608L78.816 40.392C78.7733 40.2213 78.7307 40.0507 78.688 39.88C78.688 39.6667 78.6453 39.4747 78.56 39.304C78.5173 39.176 78.3253 38.9413 77.984 38.6C77.9413 38.5573 77.8347 38.536 77.664 38.536L77.088 38.856C76.9173 38.9413 76.768 39.0053 76.64 39.048C76.5547 39.0907 76.4907 39.1333 76.448 39.176C76.2773 39.176 75.9787 39.0267 75.552 38.728C75.3813 38.6 75.2533 38.3013 75.168 37.832V36.808C75.2107 36.7653 75.232 36.6587 75.232 36.488C75.104 35.7627 75.04 35.2933 75.04 35.08L75.104 34.888C75.1467 34.8453 75.168 34.7813 75.168 34.696C75.04 34.44 74.912 34.12 74.784 33.736C74.784 33.352 74.9333 33.16 75.232 33.16H77.152C77.8773 33.0747 78.24 32.9893 78.24 32.904C78.24 32.8187 78.1973 32.7333 78.112 32.648C78.0267 32.5627 77.984 32.4987 77.984 32.456C77.9413 32.2853 78.0267 32.1147 78.24 31.944C78.4533 31.816 78.56 31.6667 78.56 31.496L78.112 30.6C78.2827 30.472 78.368 30.28 78.368 30.024C78.368 29.8533 78.3253 29.7253 78.24 29.64C78.1973 29.3413 78.0693 29.192 77.856 29.192V27.976C77.856 27.848 77.9627 27.6347 78.176 27.336C78.0053 27.1653 77.984 26.952 78.112 26.696C78.2827 26.4827 78.4747 26.312 78.688 26.184C78.5173 26.0133 78.432 25.8427 78.432 25.672C78.432 25.4587 78.496 25.288 78.624 25.16C79.0933 24.648 79.3707 24.392 79.456 24.392L79.712 24.52L80.288 23.56C80.3733 23.4747 80.4587 23.3893 80.544 23.304C80.6293 23.2187 80.7573 23.1333 80.928 23.048C81.184 23.0907 81.312 23.24 81.312 23.496C81.312 23.6667 81.4187 23.752 81.632 23.752C81.8027 23.7093 81.952 23.5387 82.08 23.24C82.1653 22.984 82.3573 22.856 82.656 22.856L83.36 22.92C83.5307 22.8347 83.7013 22.7707 83.872 22.728C84.0427 22.6427 84.2347 22.5787 84.448 22.536H84.704L84.832 22.92C84.832 22.9627 84.896 23.0267 85.024 23.112C85.0667 23.0693 85.1093 23.0267 85.152 22.984C85.1947 22.9413 85.2373 22.8987 85.28 22.856L85.856 22.6C86.24 22.6 86.688 22.6853 87.2 22.856C87.4133 23.1547 87.52 23.4747 87.52 23.816L87.584 24.328C87.328 24.6693 87.2213 24.8827 87.264 24.968L87.648 25.416C87.6907 25.4587 87.712 25.544 87.712 25.672C87.7973 25.928 87.7547 26.0987 87.584 26.184C87.4133 26.2267 87.328 26.3973 87.328 26.696C87.328 26.7387 87.4347 26.824 87.648 26.952L87.904 28.104V28.168C87.904 28.424 87.6907 28.5733 87.264 28.616L86.432 28.36H85.92C86.0053 28.0187 86.048 27.72 86.048 27.464C85.9627 27.1227 85.8133 26.952 85.6 26.952C85.344 26.952 85.1307 27.08 84.96 27.336C84.7467 27.5493 84.6827 27.6987 84.768 27.784C84.512 27.8693 84.3627 28.0187 84.32 28.232C84.2347 28.5307 84.2773 28.7227 84.448 28.808C84.064 29.1493 83.936 29.96 84.064 31.24C84.064 31.3253 84 31.4747 83.872 31.688C83.7013 31.9867 83.7653 32.1787 84.064 32.264C84.4907 32.8187 84.9173 33.096 85.344 33.096C85.6 33.0107 85.7493 32.8827 85.792 32.712C85.8773 32.4987 86.0053 32.392 86.176 32.392C86.2613 32.4347 86.432 32.456 86.688 32.456C86.7307 32.456 86.816 32.392 86.944 32.264C87.1147 32.1787 87.2 32.136 87.2 32.136C87.4987 32.136 87.7333 32.2213 87.904 32.392L87.712 33.416C87.84 33.5867 87.904 33.7573 87.904 33.928C87.904 34.1413 87.776 34.312 87.52 34.44C87.5627 34.5253 87.6053 34.6533 87.648 34.824C87.6907 34.952 87.7333 35.1227 87.776 35.336L87.84 36.168C87.8827 36.2107 87.9253 36.296 87.968 36.424C88.0107 36.5093 88.0533 36.616 88.096 36.744V37.064C88.096 37.7467 87.968 38.088 87.712 38.088C87.6267 38.0453 87.52 38.024 87.392 38.024C87.3067 37.9813 87.1787 37.9387 87.008 37.896L85.6 38.28C85.5573 38.1093 85.344 37.96 84.96 37.832C84.7893 37.8747 84.6613 37.9387 84.576 38.024C84.5333 38.152 84.5547 38.2373 84.64 38.28C84.5973 38.4507 84.5547 38.6 84.512 38.728C84.512 38.856 84.512 38.984 84.512 39.112C84.512 39.4107 84.5333 39.7093 84.576 40.008C84.6613 40.3067 84.7253 40.6053 84.768 40.904C84.896 41.032 84.9813 41.16 85.024 41.288L84.832 41.8C84.8747 42.184 84.896 42.3973 84.896 42.44C84.768 42.5253 84.704 42.632 84.704 42.76C84.7893 42.8453 84.8533 42.952 84.896 43.08C84.9813 43.1653 85.0453 43.272 85.088 43.4C85.088 43.5707 85.088 43.8267 85.088 44.168C85.1307 44.5093 85.1733 44.9147 85.216 45.384L85.408 45.768C85.408 45.768 85.3653 45.896 85.28 46.152L85.216 46.6C85.216 46.8133 85.2587 47.048 85.344 47.304C85.3013 47.3893 85.28 47.5387 85.28 47.752C85.28 47.9227 85.28 48.1147 85.28 48.328C85.152 48.328 85.152 48.456 85.28 48.712C85.3653 48.84 85.472 48.968 85.6 49.096L85.664 49.48C85.664 49.608 85.6 49.928 85.472 50.44C85.5147 50.5253 85.536 50.7173 85.536 51.016L85.472 51.72C85.4293 51.8907 85.408 52.0187 85.408 52.104C85.408 52.1467 85.408 52.1893 85.408 52.232L86.048 53.768C85.8773 53.9813 85.7707 54.3653 85.728 54.92C85.8133 55.0053 85.8773 55.1333 85.92 55.304C85.9627 55.432 86.0267 55.56 86.112 55.688C86.0693 55.7307 86.0267 55.88 85.984 56.136L86.048 56.968C86.0053 57.224 85.984 57.5013 85.984 57.8C85.984 58.056 85.984 58.3547 85.984 58.696L86.176 58.952C86.3893 59.464 86.496 59.8267 86.496 60.04V60.104C86.496 60.5307 86.1333 60.7867 85.408 60.872C85.1093 60.872 84.8107 60.872 84.512 60.872C84.256 60.872 83.9573 60.8933 83.616 60.936L82.784 61.192C82.656 61.1493 82.5067 61.128 82.336 61.128C82.208 61.128 82.0587 61.128 81.888 61.128C81.6747 61.256 81.312 61.384 80.8 61.512ZM86.048 25.096L86.304 24.84C86.2613 24.7973 86.1333 24.776 85.92 24.776L86.048 25.096ZM80.096 26.632C80.1813 26.6747 80.2667 26.6533 80.352 26.568C80.4373 26.4827 80.3947 26.376 80.224 26.248C80.096 26.3333 80.0533 26.4613 80.096 26.632ZM83.488 30.408C83.488 30.3227 83.4453 30.2373 83.36 30.152C83.3173 30.0667 83.232 30.088 83.104 30.216C83.104 30.344 83.232 30.408 83.488 30.408ZM76.768 34.312C76.8107 34.2267 76.7893 34.1413 76.704 34.056C76.6613 34.0133 76.5547 34.0347 76.384 34.12C76.4693 34.248 76.5973 34.312 76.768 34.312ZM86.816 36.296C86.9867 36.2107 87.0933 36.1467 87.136 36.104L87.072 35.72L87.008 35.656H86.752C86.5387 35.7413 86.4107 35.912 86.368 36.168L86.816 36.296ZM82.208 40.264C82.2933 40.264 82.3787 40.2213 82.464 40.136L82.336 39.944C82.2933 39.9867 82.272 40.0293 82.272 40.072C82.272 40.1147 82.2507 40.1787 82.208 40.264ZM84.96 42.376C84.9173 42.4613 84.896 42.4827 84.896 42.44C84.896 42.44 84.9173 42.4187 84.96 42.376ZM81.76 49.928C81.8027 49.8853 81.76 49.8 81.632 49.672L81.44 49.8C81.4827 49.8427 81.5253 49.864 81.568 49.864C81.6533 49.864 81.7173 49.8853 81.76 49.928ZM80.608 51.848L80.8 51.72C80.8427 51.6347 80.9067 51.528 80.992 51.4C81.0773 51.272 81.1627 51.144 81.248 51.016C80.992 50.76 80.8 50.632 80.672 50.632C80.1173 50.76 79.8827 50.9307 79.968 51.144C80.1813 51.6987 80.3947 51.9333 80.608 51.848ZM86.112 55.752V55.688C86.112 55.6453 86.112 55.6667 86.112 55.752ZM85.28 56.136L85.216 55.944C85.1733 55.9013 85.152 55.8587 85.152 55.816C85.0667 55.816 84.96 55.88 84.832 56.008L85.024 56.136H85.28ZM83.68 60.232L83.552 59.912H83.296C83.3387 60.04 83.4667 60.1467 83.68 60.232ZM90.4185 61.256C90.2478 61.0853 90.1625 60.9787 90.1625 60.936C90.1625 60.7653 90.4185 60.36 90.9305 59.72V59.464C90.9305 59.2933 90.9092 59.144 90.8665 59.016C90.8665 58.8453 90.8452 58.6747 90.8025 58.504L91.4425 57.224C91.5705 56.9253 91.5918 56.7333 91.5065 56.648L90.7385 56.52L90.8665 56.072C90.9518 55.9867 90.9518 55.816 90.8665 55.56C90.5678 55.304 90.4185 55.112 90.4185 54.984C90.4185 54.4293 90.6105 53.9387 90.9945 53.512H91.0585C91.0585 53.512 90.9518 53.4267 90.7385 53.256C90.5678 53.0853 90.4612 53 90.4185 53L90.5465 52.104C90.5465 52.0613 90.5892 51.9973 90.6745 51.912C90.7598 51.8267 90.8025 51.7627 90.8025 51.72L90.6105 51.208C90.4825 50.8667 90.4185 50.6747 90.4185 50.632L90.6105 50.376V49.416L90.8025 48.648C90.8452 48.5627 90.8452 48.4773 90.8025 48.392C90.8025 48.3067 90.8025 48.2 90.8025 48.072L90.7385 47.432C90.7385 47.3893 90.8025 47.304 90.9305 47.176C91.0585 47.048 91.1225 46.9627 91.1225 46.92C91.1225 46.92 91.0158 46.7707 90.8025 46.472L90.8665 46.28C90.8665 46.2373 90.8665 46.1733 90.8665 46.088C90.8665 46.0027 90.8452 45.8747 90.8025 45.704C90.8025 45.704 90.7812 45.704 90.7385 45.704C90.7385 45.6613 90.7385 45.6187 90.7385 45.576C90.7385 45.3627 90.7598 45.192 90.8025 45.064C90.8878 44.936 90.9305 44.8507 90.9305 44.808L90.8025 44.488C90.7172 44.3173 90.6745 44.232 90.6745 44.232L90.8665 43.848C90.9945 43.6347 91.0585 43.4853 91.0585 43.4L90.8665 42.44C90.8238 42.1413 90.7598 41.928 90.6745 41.8C90.6318 41.672 90.6105 41.5867 90.6105 41.544C90.6105 41.416 90.7172 41.288 90.9305 41.16L91.2505 40.968C91.4212 40.6267 91.5065 40.3707 91.5065 40.2C91.5065 39.6453 91.4425 39.304 91.3145 39.176C91.0585 38.8347 90.9305 38.664 90.9305 38.664L90.8665 38.216V37.384C91.5918 37.2987 91.9545 37.0427 91.9545 36.616C91.9545 36.36 91.8478 36.232 91.6345 36.232C91.5492 36.232 91.4212 36.2747 91.2505 36.36L91.1225 36.04C91.0798 35.9547 91.0372 35.8907 90.9945 35.848C90.9518 35.7627 90.9305 35.6987 90.9305 35.656C90.9305 35.4427 90.9092 35.1653 90.8665 34.824C90.8665 34.44 90.8452 34.0133 90.8025 33.544C90.8025 33.5013 90.7598 33.4373 90.6745 33.352C90.5892 33.2667 90.5465 33.1813 90.5465 33.096C90.5465 32.712 90.6745 32.52 90.9305 32.52L91.6985 32.648C91.9118 32.6907 92.0612 32.7333 92.1465 32.776C92.2745 32.8187 92.3598 32.84 92.4025 32.84L92.6585 32.776H92.9785L93.2985 32.84C93.3838 32.84 93.4265 32.8613 93.4265 32.904C93.4692 32.904 93.5118 32.904 93.5545 32.904L93.8745 32.776C93.9598 32.7333 94.0452 32.712 94.1305 32.712L94.8345 32.776C95.0478 32.8187 95.1972 32.84 95.2825 32.84C95.3678 32.84 95.4318 32.84 95.4745 32.84L95.9865 32.712C96.1572 32.6693 96.2638 32.648 96.3065 32.648C96.3918 32.648 96.4558 32.648 96.4985 32.648C96.7972 32.648 96.9892 32.9467 97.0745 33.544C97.1598 34.184 97.4372 34.504 97.9065 34.504C98.2052 34.504 98.4185 34.4187 98.5465 34.248C98.5892 34.1627 98.6318 34.0773 98.6745 33.992C98.7172 33.9067 98.7812 33.8 98.8665 33.672H99.3145C99.7412 33.1173 100.125 32.84 100.467 32.84L100.851 33.032C100.851 33.032 100.893 32.9893 100.979 32.904C101.619 32.6053 102.045 32.456 102.259 32.456C102.387 32.456 102.536 32.4773 102.707 32.52C102.877 32.52 103.048 32.5413 103.219 32.584C103.389 32.7547 103.475 32.9467 103.475 33.16C103.475 33.16 103.368 33.3093 103.155 33.608C103.197 33.7787 103.219 33.992 103.219 34.248C103.261 34.504 103.261 34.8027 103.219 35.144C103.091 35.4 102.984 35.528 102.899 35.528C102.899 35.528 102.92 35.5493 102.963 35.592C103.005 35.6347 103.048 35.7413 103.091 35.912L103.283 36.36C103.283 36.5307 103.219 36.6587 103.091 36.744C102.963 36.7867 102.899 36.872 102.899 37C102.899 37.0427 102.92 37.1067 102.963 37.192C103.005 37.2347 103.048 37.2987 103.091 37.384L103.219 37.704C103.219 37.704 103.197 37.7467 103.155 37.832C103.112 37.8747 103.048 37.9387 102.963 38.024C103.219 38.1947 103.347 38.536 103.347 39.048C103.347 39.3893 103.176 39.56 102.835 39.56C102.835 39.56 102.472 39.4747 101.747 39.304C101.064 39.1333 100.552 39.048 100.211 39.048C100.339 39.048 99.9758 39.1973 99.1225 39.496H98.9945C98.6958 39.496 98.3758 39.5813 98.0345 39.752C97.9918 39.88 97.9278 40.0293 97.8425 40.2C97.7572 40.3707 97.6718 40.5627 97.5865 40.776C97.5012 40.8187 97.3945 40.8613 97.2665 40.904C97.1812 40.9467 97.0745 41.0107 96.9465 41.096C96.9465 41.096 96.9038 41.288 96.8185 41.672C96.3918 41.8427 96.1785 42.0347 96.1785 42.248C96.1785 42.4187 96.3278 42.5253 96.6265 42.568C96.7118 42.5253 96.7972 42.6107 96.8825 42.824L96.7545 43.528C96.9678 44.168 97.0958 44.488 97.1385 44.488C97.1385 44.488 97.1172 44.5307 97.0745 44.616C97.0318 44.7013 96.9678 44.7653 96.8825 44.808C96.6265 44.8933 96.4985 44.936 96.4985 44.936C96.4985 44.9787 96.4985 45.0853 96.4985 45.256C96.5412 45.384 96.5838 45.576 96.6265 45.832C96.5838 45.9173 96.5625 46.0667 96.5625 46.28C96.5625 46.4507 96.5625 46.6427 96.5625 46.856C96.4772 46.9413 96.4345 47.0053 96.4345 47.048C96.4345 47.0907 96.5625 47.1547 96.8185 47.24C97.0318 47.368 97.1385 47.4533 97.1385 47.496C97.1385 47.5387 97.1172 47.56 97.0745 47.56L96.5625 48.072C96.5198 48.2 96.4985 48.392 96.4985 48.648C96.4985 48.9893 96.6265 49.288 96.8825 49.544L96.6265 50.12V50.248C96.6265 50.2907 96.6265 50.3547 96.6265 50.44C96.6265 50.5253 96.6478 50.632 96.6905 50.76L96.3065 51.208C96.4345 51.336 96.5625 51.528 96.6905 51.784C96.7332 51.8693 96.7545 51.9973 96.7545 52.168C96.7972 52.296 96.8185 52.4667 96.8185 52.68C96.8185 52.5093 96.7545 52.616 96.6265 53C96.5838 53.128 96.5625 53.4267 96.5625 53.896C96.5625 53.9387 96.6265 54.024 96.7545 54.152C96.7972 54.2373 96.8185 54.3013 96.8185 54.344C96.8612 54.3867 96.8825 54.4293 96.8825 54.472C96.8398 54.472 96.7545 54.6853 96.6265 55.112C96.6265 55.24 96.6478 55.3253 96.6905 55.368V55.432C96.6905 55.6027 96.6265 55.88 96.4985 56.264L96.5625 56.712V56.84C96.5625 56.8827 96.5412 56.9467 96.4985 57.032C96.4985 57.1173 96.4772 57.224 96.4345 57.352C96.4345 57.3947 96.3065 57.4587 96.0505 57.544C96.0505 57.672 96.1145 57.9707 96.2425 58.44C96.3705 58.7813 96.3492 59.08 96.1785 59.336V59.528C96.2638 59.5707 96.4985 59.592 96.8825 59.592L96.9465 59.784C96.9465 59.9547 96.8612 60.1893 96.6905 60.488C96.5198 60.872 96.3705 61.064 96.2425 61.064L95.9865 61C95.9012 60.9573 95.7945 60.936 95.6665 60.936L95.4105 61.064C95.2825 61.1067 95.1545 61.128 95.0265 61.128L92.9785 60.872L92.7865 60.936C92.7438 60.936 92.7012 60.9573 92.6585 61C92.6585 61 92.6372 61 92.5945 61C92.5518 61 92.5092 60.9787 92.4665 60.936C92.4238 60.8933 92.3598 60.872 92.2745 60.872L91.9545 60.808C91.8265 60.808 91.7412 60.8293 91.6985 60.872L91.4425 61C91.3572 61.0427 91.0158 61.128 90.4185 61.256ZM92.4025 34.312C92.4025 34.184 92.3598 34.0773 92.2745 33.992C92.2318 33.9067 92.1465 33.928 92.0185 34.056C92.0185 34.1413 92.1465 34.2267 92.4025 34.312ZM95.4745 36.232C95.5172 36.1893 95.4745 36.104 95.3465 35.976L95.1545 36.104C95.1972 36.1467 95.2398 36.168 95.2825 36.168C95.3678 36.168 95.4318 36.1893 95.4745 36.232ZM95.5385 37.256C95.5812 37.1707 95.5598 37.0853 95.4745 37C95.3892 36.9147 95.2825 36.9147 95.1545 37C95.1972 37.0853 95.3252 37.1707 95.5385 37.256ZM100.851 37.896C100.893 37.768 100.872 37.6613 100.787 37.576C100.744 37.5333 100.637 37.5547 100.467 37.64C100.467 37.7253 100.595 37.8107 100.851 37.896ZM96.7545 40.072L96.8185 39.944L96.2425 39.624V40.008L96.7545 40.072ZM93.3625 47.688C93.4478 47.688 93.5332 47.5813 93.6185 47.368L93.7465 47.048V46.6L93.2985 46.408C92.7865 46.408 92.4878 46.472 92.4025 46.6V46.664C92.4025 46.792 92.5518 46.92 92.8505 47.048L93.1065 47.368C93.2345 47.5813 93.3198 47.688 93.3625 47.688ZM96.8825 54.472V54.536C96.8825 54.536 96.8825 54.5147 96.8825 54.472ZM95.4105 55.368L95.3465 55.176C95.3038 55.2187 95.3252 55.2827 95.4105 55.368ZM91.4425 60.296C91.4852 60.296 91.5918 60.2107 91.7625 60.04C91.8052 59.9547 91.7838 59.8693 91.6985 59.784C91.6558 59.6987 91.5705 59.72 91.4425 59.848V60.296ZM92.7225 60.296L92.8505 60.104H92.5305L92.7225 60.296ZM105.056 29.832C104.885 29.7893 104.672 29.6613 104.416 29.448C104.288 29.32 104.224 29.1707 104.224 29C104.181 28.744 104.202 28.488 104.288 28.232L104.608 27.848C104.65 27.8053 104.65 27.6987 104.608 27.528C104.608 27.3573 104.586 27.2507 104.544 27.208C104.373 27.1227 104.266 26.9947 104.224 26.824C104.181 26.7387 104.16 26.4827 104.16 26.056L104.288 25.608C104.33 25.48 104.352 25.3733 104.352 25.288C104.352 25.16 104.352 25.0747 104.352 25.032L104.416 23.368C104.501 23.112 104.672 22.984 104.928 22.984L105.12 23.048C105.162 23.0907 105.226 23.112 105.312 23.112L105.696 22.92H106.464C106.549 22.92 106.656 23.0053 106.784 23.176C106.869 23.304 106.933 23.4107 106.976 23.496C107.061 23.5387 107.125 23.5813 107.168 23.624C107.253 23.496 107.424 23.3893 107.68 23.304L107.808 22.664C107.978 22.7067 108.192 22.8347 108.448 23.048C108.533 23.0907 108.768 23.112 109.152 23.112C109.194 23.112 109.28 23.048 109.408 22.92C109.536 22.792 109.642 22.728 109.728 22.728L110.368 22.792C110.453 22.9627 110.538 23.176 110.624 23.432C110.709 23.6453 110.794 23.8587 110.88 24.072C110.88 24.1573 110.837 24.2427 110.752 24.328C110.837 24.3707 110.837 24.6267 110.752 25.096L110.56 25.352C110.56 25.5227 110.496 25.7147 110.368 25.928L110.112 25.8C109.984 25.8 109.877 25.928 109.792 26.184C109.92 26.3547 110.005 26.44 110.048 26.44L110.368 26.312C110.496 26.312 110.602 26.4187 110.688 26.632V27.528L110.88 28.872V28.936C110.88 29.2773 110.666 29.4693 110.24 29.512L109.92 29.32C109.834 29.3627 109.728 29.4053 109.6 29.448C109.514 29.4907 109.429 29.5333 109.344 29.576L108.896 29.448C108.768 29.4053 108.64 29.384 108.512 29.384C108.085 29.384 107.658 29.4053 107.232 29.448C106.805 29.4907 106.421 29.5547 106.08 29.64C105.909 29.768 105.696 29.832 105.44 29.832H105.056ZM109.024 23.816C109.066 23.7733 109.152 23.752 109.28 23.752L109.216 23.496C109.045 23.5387 108.981 23.6453 109.024 23.816ZM106.08 25.224H105.824L106.08 25.544V25.224ZM109.024 61.64C108.938 61.64 108.853 61.5973 108.768 61.512C108.682 61.4267 108.618 61.384 108.576 61.384L107.296 61.256C107.253 61.256 107.146 61.2987 106.976 61.384C106.848 61.4267 106.72 61.448 106.592 61.448L106.016 61.384C105.845 61.3413 105.717 61.32 105.632 61.32C105.546 61.32 105.482 61.32 105.44 61.32C105.397 61.3627 105.312 61.4053 105.184 61.448C105.098 61.4907 104.992 61.5333 104.864 61.576L104.544 61.448V60.296L104.799 59.912C104.842 59.784 104.864 59.5067 104.864 59.08C105.034 59.0373 105.077 58.9093 104.992 58.696L104.799 58.312C104.799 57.928 104.928 57.672 105.184 57.544C105.44 57.416 105.568 57.3307 105.568 57.288C105.568 57.2027 105.546 57.1173 105.504 57.032C105.504 56.904 105.482 56.7547 105.44 56.584C105.269 56.456 105.12 56.264 104.992 56.008C104.949 55.88 104.885 55.688 104.799 55.432C104.672 54.536 104.608 53.8747 104.608 53.448C104.736 53.2773 104.757 52.7867 104.672 51.976L104.864 51.784C104.864 51.784 104.864 51.528 104.864 51.016C104.949 50.9307 105.013 50.8027 105.056 50.632L104.544 50.376V49.864C104.544 49.6507 104.522 49.4373 104.48 49.224C104.48 48.968 104.458 48.712 104.416 48.456L104.288 47.496C104.458 47.4533 104.565 47.0267 104.608 46.216L105.056 46.28L105.12 46.216V45.768C104.992 45.5547 104.8 45.4907 104.544 45.576C104.544 45.32 104.501 44.8933 104.416 44.296C104.373 43.6987 104.352 43.4 104.352 43.4C104.352 43.3573 104.394 43.208 104.48 42.952L104.608 42.696V41.224C104.608 40.9253 104.544 40.712 104.416 40.584V40.328C104.416 40.072 104.458 39.8587 104.544 39.688C104.757 39.688 104.885 39.6027 104.928 39.432C104.97 39.2613 104.864 39.1333 104.608 39.048C104.65 39.0053 104.672 38.92 104.672 38.792C104.672 38.664 104.608 38.5147 104.48 38.344V36.68L104.736 34.568L104.608 33.928L104.416 33.352V32.904H105.312C105.525 33.2453 105.738 33.416 105.952 33.416L106.464 33.16C106.805 33.032 106.976 32.968 106.976 32.968C107.018 32.968 107.125 33.032 107.296 33.16C107.466 33.3307 107.573 33.416 107.616 33.416L108.192 33.224C108.149 33.3093 108.128 33.3947 108.128 33.48C108.128 33.5227 108.128 33.544 108.128 33.544V33.608C108.128 33.6507 108.298 33.672 108.64 33.672C108.853 33.672 109.002 33.6293 109.088 33.544C109.173 33.4587 109.237 33.416 109.28 33.416C109.322 33.4587 109.429 33.48 109.6 33.48H109.792C109.877 33.3947 109.941 33.2667 109.984 33.096L110.688 32.776C110.901 32.776 111.029 32.904 111.072 33.16C111.072 33.3307 111.05 33.5653 111.008 33.864C110.965 34.1627 110.901 34.5467 110.816 35.016C110.261 35.016 109.984 35.1013 109.984 35.272C109.984 35.272 110.154 35.4427 110.496 35.784C110.794 36.0827 110.944 36.36 110.944 36.616V37.064C110.816 37.3627 110.73 37.512 110.688 37.512L111.008 38.536C110.709 38.792 110.56 38.9413 110.56 38.984L110.752 39.496C110.794 39.5387 110.816 39.624 110.816 39.752C110.816 39.8373 110.773 40.008 110.688 40.264C110.73 40.3067 110.752 40.4133 110.752 40.584L110.688 40.648L110.752 41.032C110.88 41.16 110.965 41.288 111.008 41.416L110.88 42.184L110.368 42.312C110.41 42.4827 110.496 42.504 110.624 42.376C110.88 42.5467 111.008 42.76 111.008 43.016L110.88 43.592C110.752 43.8907 110.688 44.0827 110.688 44.168C110.773 44.2107 110.837 44.2747 110.88 44.36C110.965 44.4453 111.05 44.5307 111.135 44.616C111.135 44.7867 111.05 44.936 110.88 45.064C110.624 45.32 110.474 45.512 110.432 45.64C110.73 45.8533 110.901 46.152 110.944 46.536C110.986 46.664 110.986 46.9413 110.944 47.368L111.008 47.688C111.05 47.816 111.072 47.9227 111.072 48.008V48.584C111.072 48.8827 111.072 49.1813 111.072 49.48C111.114 49.7787 111.157 50.0987 111.2 50.44C111.2 50.6533 111.157 50.888 111.072 51.144C111.114 51.2293 111.135 51.3573 111.135 51.528C111.135 51.784 111.05 51.9973 110.88 52.168C110.666 52.4667 110.56 52.6373 110.56 52.68C110.56 52.808 110.624 52.936 110.752 53.064C110.752 53.064 110.688 53.1707 110.56 53.384C110.389 53.5547 110.304 53.6827 110.304 53.768C110.389 53.8533 110.453 53.896 110.496 53.896C110.538 53.896 110.624 53.832 110.752 53.704C110.88 53.704 110.986 53.7467 111.072 53.832L111.135 57.672L111.072 58.376L111.008 58.696L110.816 59.016C110.688 59.144 110.624 59.2293 110.624 59.272C110.709 59.4427 110.794 59.5707 110.88 59.656C111.05 59.9547 111.135 60.2747 111.135 60.616C111.135 60.7867 111.072 61.0427 110.944 61.384H110.624L109.984 61.128C109.813 61.128 109.493 61.2987 109.024 61.64ZM107.616 35.016V34.696C107.573 34.6533 107.488 34.632 107.36 34.632L107.232 34.824L107.296 35.016H107.616ZM108.448 40.072C108.618 40.072 108.853 39.9867 109.152 39.816L109.472 39.432C109.472 39.56 109.514 39.6667 109.6 39.752C109.813 39.6667 109.92 39.5387 109.92 39.368C109.92 39.112 109.813 38.984 109.6 38.984L109.28 39.048C109.109 38.6213 108.917 38.408 108.704 38.408C108.618 38.536 108.512 38.6427 108.384 38.728C108.213 39.0267 108.106 39.3253 108.064 39.624C108.064 39.9227 108.192 40.072 108.448 40.072ZM107.296 45.064C107.381 45.064 107.466 45.0213 107.552 44.936C107.552 44.8933 107.509 44.8293 107.424 44.744C107.424 44.872 107.381 44.9787 107.296 45.064ZM108.448 46.856C108.661 46.7707 108.789 46.6427 108.832 46.472L108.512 46.216C108.341 46.344 108.32 46.5573 108.448 46.856ZM104.864 47.176C104.949 47.176 105.034 47.1333 105.12 47.048C105.205 46.9627 105.184 46.8773 105.056 46.792C104.928 46.792 104.864 46.92 104.864 47.176ZM108.064 51.08C108.106 50.9947 108.085 50.9093 108 50.824C107.957 50.7813 107.85 50.8027 107.68 50.888C107.765 51.016 107.893 51.08 108.064 51.08ZM107.872 59.464C108.042 59.464 108.213 59.3787 108.384 59.208C108.384 58.9947 108.234 58.888 107.936 58.888C107.893 58.9307 107.829 59.1013 107.744 59.4C107.786 59.4427 107.829 59.464 107.872 59.464ZM122.407 61.96L121.959 61.832C121.703 61.704 121.532 61.64 121.447 61.64L120.999 61.704H120.807C120.849 61.704 120.764 61.6827 120.551 61.64C120.337 61.64 119.932 61.576 119.335 61.448C119.164 61.1493 118.993 61 118.823 61L118.503 61.064C118.46 61.064 118.417 61.064 118.375 61.064C118.332 61.1067 118.289 61.128 118.247 61.128C118.076 61.128 117.884 61.0213 117.671 60.808C117.585 60.7227 117.479 60.616 117.351 60.488C117.223 60.3173 117.052 60.1467 116.839 59.976C116.156 59.8053 115.708 59.5067 115.495 59.08C115.495 58.824 115.431 58.6747 115.303 58.632C115.132 58.5893 115.047 58.4613 115.047 58.248C115.047 57.992 115.132 57.608 115.303 57.096L114.343 56.712L114.023 55.432C113.937 55.2187 113.809 54.984 113.639 54.728C113.511 54.4293 113.34 54.1093 113.127 53.768V53.384C113.127 53.128 113.169 52.9573 113.255 52.872C113.297 52.8293 113.425 52.808 113.639 52.808H113.831C113.873 52.808 113.895 52.8293 113.895 52.872C113.895 52.872 113.916 52.872 113.959 52.872L114.279 52.68C114.321 52.6373 114.492 52.616 114.791 52.616L115.047 52.68C115.089 52.68 115.111 52.7013 115.111 52.744C115.153 52.744 115.196 52.744 115.239 52.744L116.007 52.488L116.199 52.296C116.369 52.2107 116.583 52.1467 116.839 52.104C117.095 52.0613 117.436 52.0187 117.863 51.976L118.055 52.04C118.012 52.04 117.991 52.1893 117.991 52.488C117.991 52.7013 118.119 52.808 118.375 52.808C118.417 52.808 118.652 52.552 119.079 52.04C119.164 52.296 119.207 52.7227 119.207 53.32C119.207 53.6187 119.292 53.832 119.463 53.96C119.591 54.1733 119.633 54.3867 119.591 54.6C119.591 54.6853 119.633 54.728 119.719 54.728C119.377 54.728 119.207 54.8133 119.207 54.984C119.207 55.2827 119.356 55.432 119.655 55.432C119.74 55.432 119.889 55.2613 120.103 54.92C120.145 55.0053 120.273 55.24 120.487 55.624C120.615 55.752 121.063 56.008 121.831 56.392C122.172 56.52 122.62 56.584 123.175 56.584C123.345 56.584 123.537 56.4133 123.751 56.072C124.049 56.072 124.327 55.8587 124.583 55.432C124.54 55.4747 124.497 55.496 124.455 55.496C124.455 55.4533 124.433 55.432 124.391 55.432C124.391 55.3893 124.391 55.3467 124.391 55.304C124.391 55.176 124.412 55.048 124.455 54.92C124.54 54.7493 124.604 54.5787 124.647 54.408C124.561 54.3227 124.455 54.1947 124.327 54.024C124.241 53.8107 124.135 53.576 124.007 53.32C124.22 53.1067 124.177 52.872 123.879 52.616L123.239 52.168L123.367 51.464C123.239 51.2507 122.727 51.08 121.831 50.952L121.575 50.44C121.361 50.2267 121.063 49.992 120.679 49.736C120.551 49.736 120.359 49.672 120.103 49.544C120.06 49.5013 120.017 49.4587 119.975 49.416C119.932 49.3307 119.868 49.2667 119.783 49.224C119.74 49.1813 119.612 49.16 119.399 49.16C119.271 49.0747 119.079 48.8827 118.823 48.584L118.759 48.072C118.631 48.072 118.396 48.0293 118.055 47.944C117.713 47.816 117.457 47.6667 117.286 47.496L116.839 46.728C116.455 46.3867 116.092 46.024 115.751 45.64C115.196 45.0853 114.897 44.6373 114.855 44.296L115.239 43.848C115.196 43.848 115.089 43.848 114.919 43.848C114.791 43.848 114.641 43.6987 114.471 43.4V42.952C114.385 42.6533 114.3 42.4827 114.215 42.44C114.172 42.3547 114.151 42.2907 114.151 42.248L114.215 41.992V40.904C114.257 40.9467 114.321 40.968 114.407 40.968C114.62 40.968 114.727 40.84 114.727 40.584C114.727 40.2853 114.513 40.136 114.087 40.136C114.556 39.7947 114.791 39.4747 114.791 39.176C114.791 38.8773 114.577 38.6 114.151 38.344C114.108 38.1307 114.172 37.9387 114.343 37.768L114.855 37.512C114.897 37.4267 114.94 37.3413 114.983 37.256C115.068 37.128 115.175 36.9787 115.303 36.808C115.26 36.7227 115.217 36.616 115.174 36.488C115.174 36.36 115.174 36.2533 115.174 36.168C115.174 35.912 115.217 35.72 115.303 35.592C115.345 35.5493 115.409 35.528 115.495 35.528C115.58 35.528 115.687 35.5067 115.815 35.464L116.071 34.952C116.711 34.952 116.924 34.7173 116.711 34.248H116.775C116.903 34.248 117.052 34.056 117.223 33.672C117.308 33.672 117.543 33.544 117.927 33.288C118.097 33.1173 118.332 33.032 118.631 33.032H118.823C118.865 33.032 118.887 33.0533 118.887 33.096C118.929 33.096 118.972 33.096 119.015 33.096L119.271 33.032C119.271 32.9467 119.335 32.84 119.463 32.712C119.804 32.456 120.06 32.328 120.231 32.328L120.743 32.456L120.935 32.392H121.127C121.767 32.392 122.236 32.5413 122.535 32.84L122.47 33.16H122.599C122.641 33.16 122.769 33.0533 122.983 32.84C123.153 32.6693 123.324 32.584 123.495 32.584C123.751 32.584 123.964 32.648 124.135 32.776C124.348 32.904 124.476 32.968 124.519 32.968L125.031 32.84C125.201 32.7973 125.308 32.776 125.351 32.776C125.436 32.776 125.5 32.776 125.543 32.776C125.671 32.776 125.799 32.7973 125.927 32.84L126.183 32.968C126.225 33.0533 126.375 33.224 126.631 33.48H126.695C126.951 33.48 127.356 33.608 127.911 33.864C128.209 34.0773 128.444 34.3973 128.615 34.824L129.191 35.976C129.191 36.3173 129.255 36.7867 129.383 37.384C129.468 37.4693 129.575 37.5973 129.703 37.768C129.831 37.896 129.98 38.0667 130.151 38.28C130.151 38.3227 130.129 38.408 130.087 38.536C130.087 38.6213 130.065 38.728 130.023 38.856C130.151 38.984 130.257 39.1973 130.343 39.496C130.385 39.624 130.428 39.7307 130.471 39.816C130.513 39.9013 130.556 39.9867 130.599 40.072V40.392L129.447 40.84C128.807 41.0107 128.252 41.1387 127.783 41.224C127.356 41.3093 126.993 41.352 126.695 41.352L126.503 41.288C126.46 41.288 126.417 41.288 126.375 41.288C126.375 41.2453 126.353 41.224 126.311 41.224C126.225 41.224 126.119 41.288 125.991 41.416L125.735 41.672C125.351 41.8 125.052 41.864 124.839 41.864C124.668 41.864 124.476 41.672 124.263 41.288C124.092 40.9893 124.007 40.776 124.007 40.648C124.007 39.1973 123.964 38.5147 123.879 38.6C123.452 38.344 123.153 38.28 122.983 38.408H122.919L122.343 38.152C122.172 38.0667 122.023 38.024 121.895 38.024C121.809 37.9813 121.745 37.96 121.703 37.96L121.383 38.024C121.255 38.0667 121.148 38.088 121.062 38.088C120.977 38.088 120.892 38.088 120.807 38.088L120.679 38.664C120.593 38.7067 120.423 38.856 120.167 39.112L119.975 39.944C120.188 39.9867 120.337 40.136 120.423 40.392C120.508 40.776 120.551 40.968 120.551 40.968C120.508 41.0107 120.252 41.0747 119.783 41.16C119.697 41.16 119.612 41.2027 119.527 41.288C119.569 41.416 119.868 41.5227 120.423 41.608C120.551 41.736 120.636 41.9493 120.679 42.248L121.383 42.376C121.383 42.5467 121.468 42.7387 121.639 42.952C121.681 42.952 121.788 42.9947 121.959 43.08C122.044 43.2507 122.172 43.4213 122.343 43.592C122.556 43.592 122.748 43.656 122.919 43.784C123.132 43.9973 123.239 44.1893 123.239 44.36H123.111C122.983 44.36 122.812 44.424 122.599 44.552V44.808C122.684 44.8933 122.791 44.9787 122.919 45.064C123.089 45.1067 123.281 45.1067 123.495 45.064L123.687 45H123.879L124.135 45.192C124.391 45.2347 124.583 45.256 124.711 45.256C124.839 45.256 124.924 45.256 124.967 45.256C125.308 45.3413 125.543 45.4693 125.671 45.64C125.799 45.9813 126.012 46.3227 126.311 46.664L126.951 46.856C127.164 46.984 127.313 47.176 127.399 47.432C128.039 47.9867 128.359 48.392 128.359 48.648V48.776L129.127 49.544C129.127 49.6293 129.127 49.736 129.127 49.864C129.169 49.992 129.212 50.1413 129.255 50.312C129.34 50.3547 129.425 50.3973 129.51 50.44C129.596 50.4827 129.681 50.5467 129.767 50.632C130.023 50.9307 130.151 51.1653 130.151 51.336L130.023 51.656C129.98 51.7413 129.937 51.8053 129.895 51.848C129.895 51.8907 129.895 51.9333 129.895 51.976C129.895 52.104 130.044 52.4027 130.343 52.872C130.343 52.872 130.3 52.9787 130.215 53.192L130.343 53.768L130.471 54.216L130.279 54.856C130.321 54.9413 130.343 55.1547 130.343 55.496C130.3 55.5387 130.257 55.5813 130.215 55.624C130.172 55.624 130.129 55.6667 130.087 55.752L129.575 57.352C129.575 57.4373 129.575 57.5653 129.575 57.736C129.575 57.864 129.553 58.0133 129.51 58.184C129.425 58.5253 129.084 58.696 128.487 58.696L128.039 59.784L127.079 60.424C126.951 60.552 126.652 60.7867 126.183 61.128H125.671L124.647 61.576C123.324 61.832 122.577 61.96 122.407 61.96ZM121.255 33.864C121.297 33.7787 121.276 33.6933 121.191 33.608C121.148 33.5653 121.041 33.5867 120.871 33.672C120.956 33.8 121.084 33.864 121.255 33.864ZM129.447 39.88C129.447 39.5813 129.425 39.432 129.383 39.432L129.062 39.368C129.02 39.368 128.977 39.368 128.935 39.368C128.892 39.3253 128.849 39.304 128.807 39.304C128.721 39.3893 128.679 39.5387 128.679 39.752L129.447 39.88ZM115.815 40.264C115.815 40.0933 115.793 39.9867 115.751 39.944C115.623 39.9013 115.516 39.9227 115.431 40.008C115.431 40.0933 115.559 40.1787 115.815 40.264ZM120.039 44.808C120.252 44.7227 120.359 44.6373 120.359 44.552C120.359 44.4667 120.252 44.3813 120.039 44.296V44.808ZM115.687 55.176C115.687 55.0907 115.644 54.9627 115.559 54.792L115.367 54.856C115.153 54.856 115.089 54.7493 115.174 54.536L115.047 54.792C115.089 54.92 115.175 55.048 115.303 55.176H115.687ZM127.591 56.904C127.548 56.904 127.825 56.6907 128.423 56.264V56.008C128.167 55.7093 127.932 55.56 127.719 55.56H127.527C127.527 55.6453 127.505 55.752 127.463 55.88C127.463 55.9653 127.441 56.072 127.399 56.2C127.185 56.5413 127.079 56.712 127.079 56.712C127.207 56.84 127.377 56.904 127.591 56.904ZM120.999 59.592L120.615 59.144H120.359L120.295 59.336L120.999 59.592ZM149.109 62.408C148.554 62.28 148.149 62.216 147.893 62.216C147.68 62.2587 147.552 62.3013 147.509 62.344C147.466 62.3013 147.317 62.2373 147.061 62.152C146.805 62.1947 146.528 62.216 146.229 62.216C145.973 62.216 145.696 62.216 145.397 62.216L145.205 62.152C145.12 62.1093 145.013 62.088 144.885 62.088C145.013 62.088 144.842 62.152 144.373 62.28H144.117C144.16 62.0667 144.053 61.9173 143.797 61.832L143.541 61.96C143.413 62.0027 143.306 62.024 143.221 62.024C143.093 62.024 142.88 61.9387 142.581 61.768L142.133 59.784C142.176 59.7413 142.197 59.6347 142.197 59.464L142.133 58.76C142.133 58.7173 142.218 58.6107 142.389 58.44C142.517 58.2267 142.581 58.12 142.581 58.12C142.496 58.0347 142.389 57.9493 142.261 57.864C142.133 57.736 142.005 57.5867 141.877 57.416L141.941 56.904C142.026 56.8187 142.09 56.776 142.133 56.776L142.581 56.968C142.752 56.968 142.944 56.7973 143.157 56.456C143.285 56.2 143.349 55.9867 143.349 55.816V55.624C143.349 55.24 143.2 55.0267 142.901 54.984C142.73 54.984 142.602 55.0907 142.517 55.304V55.816H142.197C142.154 56.0293 142.176 56.1787 142.261 56.264C142.176 56.2213 142.069 56.1787 141.941 56.136C141.813 56.0933 141.664 56.0293 141.493 55.944C141.365 55.7307 141.301 55.6027 141.301 55.56C141.301 55.4747 141.301 55.3893 141.301 55.304C141.344 55.2187 141.365 55.1333 141.365 55.048C141.365 54.7067 141.301 54.28 141.173 53.768V53.256C141.173 53.0853 141.066 52.936 140.853 52.808C140.938 51.8267 140.938 51.08 140.853 50.568C140.768 50.3547 140.618 50.2267 140.405 50.184L139.701 49.992C139.573 50.0347 139.509 50.1413 139.509 50.312C139.466 50.5253 139.424 50.7813 139.381 51.08C139.338 51.336 139.274 51.6347 139.189 51.976C139.061 52.104 138.976 52.232 138.933 52.36L138.997 52.552C139.04 52.5947 139.061 52.6587 139.061 52.744L138.997 53.896C138.997 53.9813 139.018 54.088 139.061 54.216L138.805 54.792C138.89 55.0907 138.89 55.6027 138.805 56.328L138.613 56.968L138.741 57.928L138.805 58.888C138.805 59.0587 138.677 59.1867 138.421 59.272C138.506 59.3573 138.506 59.5067 138.421 59.72C138.293 59.7627 138.165 59.9547 138.037 60.296C138.037 60.5093 138.122 60.7013 138.293 60.872C138.464 61.0427 138.549 61.2347 138.549 61.448C138.165 61.6187 137.824 61.704 137.525 61.704L136.565 61.64C136.394 61.4693 136.138 61.32 135.797 61.192H135.669C135.626 61.192 135.562 61.192 135.477 61.192C135.392 61.2347 135.285 61.2773 135.157 61.32L135.093 61.512C135.008 61.5973 134.965 61.64 134.965 61.64L134.325 61.576C134.282 61.4907 134.133 61.32 133.877 61.064C133.834 61.064 133.728 61.1067 133.557 61.192C133.429 61.2347 133.301 61.256 133.173 61.256L132.789 61.128C132.704 61.1707 132.597 61.2133 132.469 61.256C132.384 61.3413 132.256 61.4053 132.085 61.448C131.829 61.3627 131.701 61.2133 131.701 61L132.021 59.912C131.978 59.656 131.936 59.4213 131.893 59.208C131.893 58.9947 131.914 58.8027 131.957 58.632C131.957 58.504 132.042 58.3333 132.213 58.12C132.384 57.9067 132.469 57.7573 132.469 57.672C132.554 57.544 132.469 57.4373 132.213 57.352V57.16L132.469 56.328C132.597 55.9013 132.597 55.624 132.469 55.496V55.24C132.725 55.24 133.002 55.1547 133.301 54.984C133.301 54.8987 133.344 54.728 133.429 54.472L133.557 54.024L133.365 53.832C133.322 53.832 133.258 53.7893 133.173 53.704C133.002 53.6187 132.917 53.576 132.917 53.576C132.746 53.4907 132.618 53.4907 132.533 53.576V53.32L132.853 53C132.896 52.9573 132.917 52.7867 132.917 52.488L132.789 50.312C132.874 50.184 132.96 50.056 133.045 49.928C133.13 49.7573 133.216 49.5867 133.301 49.416L133.237 49.16C133.152 49.0747 133.109 49.0107 133.109 48.968L133.173 48.52C133.13 48.4347 133.109 48.3493 133.109 48.264C133.109 48.136 133.088 47.9867 133.045 47.816C133.088 47.7733 133.109 47.7093 133.109 47.624C133.109 47.5387 133.13 47.432 133.173 47.304C133.173 47.176 133.152 47.048 133.109 46.92C133.024 46.664 132.981 46.536 132.981 46.536L133.557 45.768C133.386 45.5973 133.301 45.448 133.301 45.32L133.493 44.936C133.536 44.936 133.642 44.9787 133.813 45.064L133.941 44.936C133.77 44.8507 133.6 44.7227 133.429 44.552V44.232C133.728 44.1467 133.898 44.04 133.941 43.912L134.133 43.4C134.09 43.3573 134.069 43.272 134.069 43.144H133.493V43.464H133.301L133.365 42.12C133.365 42.0347 133.514 41.7787 133.813 41.352L134.261 40.648C134.261 40.648 134.112 40.1787 133.813 39.24V39.048C133.813 38.92 133.792 38.7707 133.749 38.6C133.749 38.4293 133.728 38.2373 133.685 38.024C133.728 37.9813 133.77 37.9387 133.813 37.896C133.898 37.8533 133.962 37.8107 134.005 37.768L133.813 37.256C133.856 37.1707 133.898 37.0853 133.941 37C134.026 36.9147 134.09 36.7867 134.133 36.616C134.133 36.4453 134.048 36.2747 133.877 36.104C133.877 36.0187 133.877 35.912 133.877 35.784C133.92 35.656 133.962 35.5067 134.005 35.336C134.09 35.2507 134.154 35.1227 134.197 34.952L134.133 33.224C134.176 33.1813 134.218 33.1173 134.261 33.032C134.346 32.9467 134.432 32.8613 134.517 32.776L134.645 31.944C134.645 31.8587 134.624 31.7947 134.581 31.752L134.453 31.56C134.453 31.3893 134.453 31.176 134.453 30.92C134.496 30.6213 134.538 30.3013 134.581 29.96L134.709 29.64C134.709 29.64 134.688 29.6187 134.645 29.576C134.645 29.5333 134.624 29.4693 134.581 29.384C134.453 29.256 134.41 29.1707 134.453 29.128C134.453 29.0853 134.517 28.8507 134.645 28.424C134.773 27.9547 134.858 27.6987 134.901 27.656C134.858 27.4853 134.837 27.272 134.837 27.016C134.837 26.76 134.837 26.4827 134.837 26.184L134.965 23.688C134.965 23.6027 134.944 23.5387 134.901 23.496C134.858 23.4533 134.837 23.368 134.837 23.24C134.922 22.8987 135.157 22.728 135.541 22.728L136.693 23.112C136.693 23.112 136.714 23.0907 136.757 23.048C136.842 23.0053 136.928 22.9413 137.013 22.856C137.226 23.112 137.482 23.24 137.781 23.24C137.866 23.1973 137.952 23.1547 138.037 23.112C138.122 23.0693 138.229 23.0267 138.357 22.984C138.528 22.984 138.72 23.0907 138.933 23.304C138.976 23.3467 139.018 23.3893 139.061 23.432C139.104 23.4747 139.168 23.5387 139.253 23.624C139.552 23.624 139.786 23.496 139.957 23.24L140.213 23.112C140.384 23.0267 140.49 22.984 140.533 22.984L141.045 23.112C141.088 23.112 141.152 23.112 141.237 23.112C141.322 23.112 141.429 23.0907 141.557 23.048L141.429 24.904C141.429 24.9467 141.365 25.032 141.237 25.16V25.544C141.066 25.8 140.96 25.992 140.917 26.12L141.173 27.144L141.109 27.976C141.024 27.976 140.853 28.0187 140.597 28.104C140.597 28.1467 140.661 28.36 140.789 28.744C140.917 29.0853 140.981 29.256 140.981 29.256C140.981 29.2987 141.024 29.4053 141.109 29.576L141.173 29.896C141.173 29.9387 141.109 30.024 140.981 30.152C140.853 30.3227 140.789 30.4293 140.789 30.472L140.981 31.368C140.938 31.8373 140.81 32.1787 140.597 32.392L140.661 32.648L140.533 34.504C140.448 34.504 140.384 34.5893 140.341 34.76L140.469 35.336C140.512 35.5067 140.533 35.6347 140.533 35.72C140.533 35.8053 140.533 35.8693 140.533 35.912L140.341 36.168C140.298 36.296 140.277 36.4453 140.277 36.616C140.277 36.744 140.256 36.8933 140.213 37.064L140.277 37.128V38.856L140.085 39.368V39.624C140.085 40.2213 140.234 40.5413 140.533 40.584C140.704 40.584 140.874 40.4347 141.045 40.136C141.088 40.0507 141.13 39.944 141.173 39.816C141.216 39.688 141.28 39.5387 141.365 39.368C141.408 39.3253 141.45 39.2613 141.493 39.176C141.578 39.0907 141.664 39.0053 141.749 38.92C141.92 38.92 142.026 38.856 142.069 38.728L142.389 37.192C142.474 37.064 142.581 36.9147 142.709 36.744C142.837 36.5733 142.965 36.3813 143.093 36.168L143.157 35.912C143.626 35.8267 143.818 35.6347 143.733 35.336L143.541 34.696C143.584 34.568 143.69 34.4613 143.861 34.376C144.074 34.2907 144.224 34.2053 144.309 34.12C144.181 33.736 144.16 33.5013 144.245 33.416H144.501C144.586 33.544 144.714 33.672 144.885 33.8H145.077C145.418 33.8 145.696 33.6933 145.909 33.48L146.613 33.928C146.698 33.928 146.826 33.8 146.997 33.544H147.189C147.232 33.672 147.381 33.8213 147.637 33.992L148.149 33.8C148.234 33.8427 148.426 33.9067 148.725 33.992C149.024 34.0347 149.216 34.056 149.301 34.056L149.621 33.8C149.834 33.672 149.984 33.608 150.069 33.608L150.965 34.056C151.093 34.2267 151.157 34.376 151.157 34.504C151.029 34.632 150.858 34.8027 150.645 35.016C150.474 35.1867 150.282 35.4213 150.069 35.72C149.984 35.848 149.898 35.9973 149.813 36.168C149.728 36.3387 149.664 36.5307 149.621 36.744C149.536 36.9573 149.45 37.064 149.365 37.064L148.917 36.872C148.789 36.872 148.704 36.9573 148.661 37.128C148.618 37.2133 148.597 37.3413 148.597 37.512C148.597 37.5547 148.597 37.6187 148.597 37.704C148.64 37.7467 148.661 37.8107 148.661 37.896C148.661 38.152 148.576 38.4507 148.405 38.792C148.32 38.8773 148.213 38.984 148.085 39.112C148 39.24 147.893 39.3893 147.765 39.56C147.722 39.6027 147.637 39.6453 147.509 39.688C147.424 39.7307 147.338 39.7947 147.253 39.88C147.21 39.9653 147.168 40.1147 147.125 40.328C147.082 40.4987 147.018 40.712 146.933 40.968L146.549 41.224C146.506 41.3093 146.421 41.4587 146.293 41.672C146.208 41.8427 146.08 42.0347 145.909 42.248C145.653 42.2907 145.44 42.2907 145.269 42.248V42.952C145.269 42.9947 145.248 43.08 145.205 43.208C145.205 43.2933 145.184 43.4 145.141 43.528C145.098 43.5707 145.056 43.6133 145.013 43.656C144.97 43.6987 144.928 43.7413 144.885 43.784C144.928 43.8267 144.97 43.9547 145.013 44.168C144.97 44.296 144.928 44.4027 144.885 44.488C144.885 44.5733 144.885 44.6587 144.885 44.744C144.885 45.0853 145.034 45.3413 145.333 45.512L145.077 46.024C145.077 46.0667 145.141 46.1947 145.269 46.408L145.525 46.856V47.368L145.589 48.072C145.589 48.3707 145.589 48.6267 145.589 48.84C145.589 49.0533 145.61 49.224 145.653 49.352L145.909 49.864C146.08 50.0773 146.122 50.2267 146.037 50.312C146.25 50.312 146.421 50.632 146.549 51.272C146.762 52.04 146.89 52.4453 146.933 52.488V52.808C146.933 53.4907 147.04 53.9387 147.253 54.152C147.125 54.7067 147.082 55.0267 147.125 55.112L147.381 55.624C147.424 55.7947 147.466 55.9653 147.509 56.136C147.552 56.3067 147.594 56.4987 147.637 56.712C147.722 56.7547 147.85 56.904 148.021 57.16C148.064 57.2453 148.085 57.416 148.085 57.672L147.957 57.992C147.914 58.0773 147.893 58.1627 147.893 58.248C147.893 58.3333 147.893 58.3973 147.893 58.44C147.722 58.6107 147.594 58.824 147.509 59.08C147.466 59.336 147.488 59.464 147.573 59.464L147.829 59.272L148.149 59.336L148.341 59.848C148.341 59.8907 148.341 59.9547 148.341 60.04C148.341 60.1253 148.362 60.2107 148.405 60.296V60.488C148.874 61.512 149.109 61.9813 149.109 61.896V62.408ZM139.701 24.712L139.957 24.584C139.957 24.4987 139.936 24.4347 139.893 24.392C139.85 24.4347 139.786 24.5413 139.701 24.712ZM137.077 26.568C137.205 26.6107 137.312 26.5893 137.397 26.504C137.44 26.4613 137.418 26.3547 137.333 26.184C137.248 26.2267 137.162 26.3547 137.077 26.568ZM139.957 30.728C139.957 30.6 139.936 30.5147 139.893 30.472C139.85 30.4293 139.744 30.4507 139.573 30.536C139.573 30.664 139.701 30.728 139.957 30.728ZM147.061 36.36C147.104 36.36 147.061 36.2747 146.933 36.104L146.741 36.232C146.784 36.2747 146.826 36.296 146.869 36.296C146.954 36.296 147.018 36.3173 147.061 36.36ZM147.061 37.384C147.061 37.3413 147.061 37.32 147.061 37.32C147.104 37.2773 147.125 37.256 147.125 37.256C147.125 37 146.997 36.9573 146.741 37.128C146.741 37.2133 146.848 37.2987 147.061 37.384ZM139.957 44.424L140.021 44.296C139.936 44.0827 139.786 43.8907 139.573 43.72V44.296C139.786 44.424 139.914 44.4667 139.957 44.424ZM134.069 51.592C134.581 51.6347 134.837 51.656 134.837 51.656L135.285 50.504C134.517 50.76 134.09 51.0587 134.005 51.4C134.048 51.4427 134.069 51.5067 134.069 51.592ZM144.693 56.584C144.778 56.456 144.842 56.264 144.885 56.008C144.672 56.0933 144.544 56.2 144.501 56.328L144.693 56.584ZM155.894 61.256L155.062 61H154.806C154.678 61 154.529 61 154.358 61C154.187 60.9573 153.995 60.9147 153.782 60.872L152.438 59.72C152.097 59.3787 151.841 58.9733 151.67 58.504C151.627 58.3333 151.585 58.12 151.542 57.864C151.499 57.608 151.435 57.3093 151.35 56.968L151.414 56.648C151.414 56.52 151.393 56.4133 151.35 56.328C151.265 56.072 151.222 55.944 151.222 55.944C151.265 55.8587 151.286 55.7307 151.286 55.56C151.286 55.3467 151.286 55.1333 151.286 54.92L150.902 53.64V53.448C150.902 53.3627 150.902 53.256 150.902 53.128C150.902 53 150.923 52.872 150.966 52.744L151.286 51.976V51.528C151.457 51.272 151.627 50.952 151.798 50.568C151.969 50.1413 152.139 49.6507 152.31 49.096L152.822 48.84C152.865 48.7547 152.907 48.6693 152.95 48.584C152.993 48.4987 153.057 48.4133 153.142 48.328L154.038 47.432C154.081 47.3467 154.123 47.2613 154.166 47.176C154.209 47.048 154.273 46.8987 154.358 46.728L156.662 45.32C156.875 45.192 157.089 45.064 157.302 44.936C157.515 44.808 157.729 44.6587 157.942 44.488C157.942 44.488 158.07 44.5307 158.326 44.616C158.369 44.5733 158.411 44.5307 158.454 44.488C158.497 44.4027 158.561 44.3387 158.646 44.296L159.286 44.04C159.286 43.8267 159.371 43.6133 159.542 43.4C159.67 43.3147 159.819 43.1867 159.99 43.016C160.203 42.8453 160.438 42.632 160.694 42.376C160.737 42.3333 160.737 42.12 160.694 41.736C160.779 41.8213 160.822 41.8 160.822 41.672C160.822 41.288 160.801 41.1387 160.758 41.224C160.715 41.0533 160.651 40.8827 160.566 40.712C160.523 40.4987 160.481 40.2853 160.438 40.072C160.395 40.0293 160.417 39.9013 160.502 39.688L160.63 39.368C160.63 39.368 160.523 39.2187 160.31 38.92L159.67 38.088C159.457 37.8747 159.179 37.7893 158.838 37.832L158.518 37.896C158.262 37.9813 158.134 38.024 158.134 38.024H157.558L157.43 38.152C157.473 38.1947 157.515 38.2373 157.558 38.28C157.601 38.3227 157.643 38.3867 157.686 38.472C157.686 38.5573 157.665 38.6213 157.622 38.664V38.856C157.451 38.8987 157.259 39.0693 157.046 39.368C156.961 39.624 156.918 39.8587 156.918 40.072C157.003 40.2427 157.131 40.4133 157.302 40.584C157.259 40.6267 157.195 40.648 157.11 40.648C157.025 40.9893 157.025 41.224 157.11 41.352L157.302 41.608V41.928C157.302 41.9707 157.238 42.0347 157.11 42.12L156.342 41.928C156.299 41.7573 156.193 41.7147 156.022 41.8C155.894 41.8853 155.787 41.864 155.702 41.736H155.574C155.446 41.736 155.361 41.6933 155.318 41.608C155.275 41.48 155.19 41.5013 155.062 41.672L154.678 42.12C154.465 42.12 154.294 42.1413 154.166 42.184L153.846 42.056C153.718 41.9707 153.633 41.9493 153.59 41.992C153.547 41.992 153.505 41.992 153.462 41.992L152.118 42.376C152.033 42.376 151.926 42.376 151.798 42.376C151.67 42.376 151.521 42.3547 151.35 42.312L151.03 41.352C151.03 41.3093 151.051 41.288 151.094 41.288C151.137 41.2453 151.158 41.2027 151.158 41.16L151.222 40.968C151.179 40.84 151.158 40.6907 151.158 40.52C151.158 40.3067 151.158 40.0933 151.158 39.88C151.286 39.752 151.371 39.624 151.414 39.496C151.457 39.368 151.478 39.0907 151.478 38.664V38.28C151.478 37.1707 152.417 35.784 154.294 34.12C154.337 33.992 154.486 33.8 154.742 33.544C154.785 33.5013 155.062 33.3733 155.574 33.16C155.659 33.0747 155.681 33.0107 155.638 32.968L155.702 32.648C155.873 32.6907 156.043 32.7333 156.214 32.776C156.427 32.776 156.619 32.776 156.79 32.776L157.238 32.584C157.323 32.5413 157.409 32.4987 157.494 32.456C157.579 32.4133 157.643 32.392 157.686 32.392H158.134C158.177 32.3493 158.326 32.2853 158.582 32.2C158.838 32.1573 159.051 32.136 159.222 32.136C159.435 32.0933 159.627 32.072 159.798 32.072C160.011 32.072 160.459 32.136 161.142 32.264C161.91 32.392 162.337 32.52 162.422 32.648L162.358 33.096L162.55 33.352L162.934 33.16C163.062 33.16 163.211 33.288 163.382 33.544L163.894 33.608C163.979 33.608 164.065 33.6293 164.15 33.672C164.278 33.672 164.363 33.672 164.406 33.672C164.449 33.7147 164.491 33.7573 164.534 33.8C164.577 33.8 164.619 33.8427 164.662 33.928V34.44L164.15 34.696C164.193 34.8667 164.363 34.9733 164.662 35.016C165.003 35.0587 165.195 35.1227 165.238 35.208L165.878 37.576C165.878 37.704 166.006 37.8747 166.262 38.088C166.305 38.3867 166.326 38.728 166.326 39.112C166.326 39.496 166.326 39.9013 166.326 40.328L166.518 40.648C166.561 40.6907 166.582 40.9253 166.582 41.352L166.518 42.44C166.475 42.824 166.454 43.1653 166.454 43.464C166.454 43.72 166.454 43.9333 166.454 44.104L166.582 44.296C166.625 44.7227 166.646 45.064 166.646 45.32C166.689 45.5333 166.71 45.6187 166.71 45.576L166.454 46.216C166.411 46.3867 166.369 46.5147 166.326 46.6C166.326 46.6427 166.326 46.6853 166.326 46.728C166.326 46.856 166.326 46.984 166.326 47.112C166.369 47.24 166.411 47.368 166.454 47.496C166.539 47.5813 166.603 47.7093 166.646 47.88C166.731 48.008 166.795 48.1573 166.838 48.328L166.774 49.16C166.731 49.2027 166.689 49.288 166.646 49.416C166.603 49.5013 166.561 49.608 166.518 49.736C166.518 49.736 166.603 50.312 166.774 51.464L166.518 52.36C166.561 52.4027 166.625 52.552 166.71 52.808C166.795 53.0213 166.838 53.1493 166.838 53.192V53.512C166.838 53.768 166.817 53.96 166.774 54.088C167.158 54.1307 167.35 54.4507 167.35 55.048L167.222 55.432C167.137 55.688 167.094 55.816 167.094 55.816L167.286 56.52C167.329 56.6907 167.35 56.8827 167.35 57.096C167.393 57.3093 167.414 57.5867 167.414 57.928V58.568C167.542 58.7387 167.67 59.0373 167.798 59.464V59.528C167.798 59.9973 167.222 60.2747 166.07 60.36L164.854 60.168C164.811 60.168 164.683 60.168 164.47 60.168C164.257 60.168 163.937 60.1893 163.51 60.232C163.467 60.232 163.403 60.2747 163.318 60.36C163.233 60.4453 163.147 60.488 163.062 60.488H162.486C162.486 60.488 162.23 60.4027 161.718 60.232L161.846 59.656C161.846 59.4 161.718 59.208 161.462 59.08C161.462 59.0373 161.483 58.8667 161.526 58.568L161.654 58.12C161.355 58.1627 160.587 58.8027 159.35 60.04C159.051 60.3387 158.838 60.4667 158.71 60.424L158.454 60.36C158.326 60.488 158.198 60.5947 158.07 60.68C157.814 60.808 157.579 60.872 157.366 60.872C157.323 60.9147 157.302 60.9147 157.302 60.872C157.259 60.8293 157.217 60.808 157.174 60.808C157.131 60.8507 156.918 60.936 156.534 61.064C156.193 61.192 155.979 61.256 155.894 61.256ZM156.214 33.672C156.214 33.544 156.129 33.4587 155.958 33.416C155.873 33.5013 155.83 33.5653 155.83 33.608C155.873 33.864 156.001 33.8853 156.214 33.672ZM164.15 36.936L164.342 36.68C164.385 36.5947 164.342 36.5093 164.214 36.424C164.086 36.3813 163.937 36.3813 163.766 36.424C163.809 36.552 163.937 36.7227 164.15 36.936ZM155.062 39.24L155.83 39.176C156.171 39.176 156.342 39.0267 156.342 38.728L156.214 38.408L155.382 38.344C155.041 38.344 154.891 38.472 154.934 38.728L154.998 38.984C155.041 39.0693 155.062 39.1547 155.062 39.24ZM160.886 43.912C160.929 43.9547 161.035 43.9547 161.206 43.912L161.142 43.656C160.971 43.6987 160.886 43.784 160.886 43.912ZM156.662 47.688L156.726 47.368L156.342 47.304L156.662 47.688ZM158.198 55.624H158.518C158.603 55.624 158.689 55.5813 158.774 55.496C158.859 55.4107 158.923 55.368 158.966 55.368C159.051 55.4107 159.179 55.4747 159.35 55.56C159.521 55.56 159.713 55.4533 159.926 55.24C160.011 55.0267 160.139 54.7707 160.31 54.472C160.523 54.3867 160.758 54.216 161.014 53.96C160.971 53.8747 160.95 53.704 160.95 53.448C160.95 53.2347 160.95 53 160.95 52.744C160.993 52.488 161.035 52.2107 161.078 51.912C161.035 51.6987 160.993 51.464 160.95 51.208C160.907 50.9093 160.865 50.568 160.822 50.184C160.822 49.928 160.95 49.7787 161.206 49.736C161.078 49.3093 160.801 48.712 160.374 47.944H159.35C159.222 48.456 159.03 48.904 158.774 49.288L158.326 49.608L158.07 50.056L157.622 50.312C157.579 50.4827 157.494 50.6747 157.366 50.888C157.281 51.1013 157.195 51.3573 157.11 51.656C157.11 51.912 156.961 52.3387 156.662 52.936L156.726 53.192C156.427 53.5333 156.278 53.7467 156.278 53.832C156.363 53.7893 156.449 53.832 156.534 53.96L156.918 54.984C157.003 55.0267 157.089 55.0693 157.174 55.112C157.259 55.112 157.345 55.1547 157.43 55.24C157.473 55.2827 157.515 55.3253 157.558 55.368C157.601 55.4107 157.643 55.4747 157.686 55.56L158.198 55.624ZM164.726 52.36C164.811 52.36 164.918 52.296 165.046 52.168C165.217 51.9973 165.302 51.8693 165.302 51.784L165.174 51.528C165.131 51.4853 165.067 51.464 164.982 51.464C164.897 51.464 164.811 51.4427 164.726 51.4L164.278 51.72C164.321 51.7627 164.385 51.912 164.47 52.168C164.555 52.296 164.641 52.36 164.726 52.36ZM162.102 54.152L162.486 54.024C162.443 53.9813 162.422 53.8747 162.422 53.704L162.038 53.768C162.038 53.9813 162.059 54.1093 162.102 54.152ZM158.71 59.592C158.795 59.2507 158.774 59.08 158.646 59.08L158.518 59.208C158.475 59.2507 158.454 59.3573 158.454 59.528L158.71 59.592ZM170.347 69.896C170.262 69.896 170.048 69.832 169.707 69.704L169.067 69.512C169.067 69.512 169.046 69.512 169.003 69.512C168.96 69.5547 168.896 69.5973 168.811 69.64C168.64 69.7253 168.448 69.7467 168.235 69.704C168.107 69.704 167.766 69.5547 167.211 69.256C167.254 69.1707 167.296 69.0427 167.339 68.872C167.382 68.744 167.446 68.5947 167.531 68.424L167.723 68.168V66.76C167.808 66.5467 167.936 66.44 168.107 66.44L168.299 66.568H168.555C168.47 66.4827 168.427 66.312 168.427 66.056L167.915 65.8C167.787 65.7573 167.723 65.3947 167.723 64.712C167.723 63.688 167.936 63.1973 168.363 63.24L169.003 63.432H169.387L169.771 63.368C169.984 63.368 170.155 63.432 170.283 63.56C170.368 63.6453 170.454 63.688 170.539 63.688C170.838 63.688 171.115 63.56 171.371 63.304C171.627 63.0907 171.84 62.8987 172.011 62.728C172.182 62.6 172.288 62.5147 172.331 62.472C172.416 62.3867 172.523 62.3227 172.651 62.28C172.822 62.28 172.992 62.2587 173.163 62.216V61.704C173.12 61.6187 173.099 61.512 173.099 61.384C173.099 61.2987 173.078 61.1707 173.035 61C173.035 60.872 173.099 60.7227 173.227 60.552C173.312 60.5947 173.398 60.6587 173.483 60.744C173.568 60.8293 173.675 60.9147 173.803 61C173.846 61 173.952 60.9147 174.123 60.744H174.059C174.059 60.7013 174.059 60.6587 174.059 60.616C174.102 60.5733 174.123 60.5307 174.123 60.488C174.123 60.36 174.038 60.168 173.867 59.912C173.824 59.912 173.76 60.0187 173.675 60.232H173.355C173.44 59.7627 173.526 59.4427 173.611 59.272V59.144L173.163 58.952C173.078 58.7387 173.014 58.4613 172.971 58.12L172.907 57.416C172.907 57.2027 173.099 56.9467 173.483 56.648C173.44 56.4773 173.355 56.392 173.227 56.392C173.099 56.392 172.992 56.4347 172.907 56.52C172.779 56.392 172.715 56.072 172.715 55.56C172.715 55.3467 172.694 55.2187 172.651 55.176C172.523 54.8773 172.438 54.728 172.395 54.728V54.792C172.395 54.792 172.395 54.7707 172.395 54.728L172.587 54.216C172.715 54.0027 172.779 53.8533 172.779 53.768C172.779 53.64 172.587 53.576 172.203 53.576L172.267 53.256C172.096 52.8293 171.968 52.424 171.883 52.04C171.798 51.656 171.776 51.2933 171.819 50.952L172.139 50.44C172.096 50.3973 172.118 50.248 172.203 49.992L172.267 49.608C172.224 49.48 172.054 49.416 171.755 49.416L171.371 47.688C171.584 47.6027 171.776 47.4747 171.947 47.304C171.947 47.2187 171.862 47.112 171.691 46.984L171.243 46.728C171.243 46.6853 171.243 46.6213 171.243 46.536C171.243 46.4507 171.264 46.3227 171.307 46.152C171.35 46.0667 171.371 45.9387 171.371 45.768C171.371 45.64 171.35 45.4693 171.307 45.256C171.264 45.0427 171.179 44.7867 171.051 44.488L170.795 43.784L170.987 43.08H171.051C171.307 43.08 171.542 43.1653 171.755 43.336C171.84 43.336 171.904 43.2507 171.947 43.08C171.947 42.8667 171.84 42.76 171.627 42.76L171.435 42.824C170.752 42.7813 170.411 42.184 170.411 41.032C170.411 40.7333 170.454 40.5413 170.539 40.456C170.752 40.2427 170.902 40.136 170.987 40.136C170.944 40.0933 170.859 40.0293 170.731 39.944C170.646 39.816 170.518 39.6667 170.347 39.496C170.219 39.368 170.155 39.1973 170.155 38.984C170.112 38.728 170.112 38.3227 170.155 37.768C170.07 37.5973 170.006 37.4907 169.963 37.448C170.048 37.2773 170.091 37.0213 170.091 36.68C170.176 36.5947 170.198 36.488 170.155 36.36C169.558 35.5067 169.302 34.9093 169.387 34.568L169.451 34.248C169.536 34.0773 169.579 33.9493 169.579 33.864C169.195 33.3947 169.003 33.0107 169.003 32.712C169.003 32.6267 169.067 32.456 169.195 32.2L169.707 32.264C169.792 32.264 169.856 32.2427 169.899 32.2C169.942 32.1573 170.006 32.136 170.091 32.136C170.091 32.136 170.176 32.1787 170.347 32.264C170.432 32.392 170.496 32.456 170.539 32.456L171.307 32.264C171.392 32.264 171.542 32.3707 171.755 32.584L172.011 32.392C172.182 32.3067 172.267 32.264 172.267 32.264C172.31 32.264 172.395 32.2853 172.523 32.328C172.651 32.328 172.736 32.3493 172.779 32.392L173.099 32.264C173.227 32.2213 173.334 32.2 173.419 32.2L174.251 32.52C174.507 32.3493 174.763 32.2427 175.019 32.2L175.595 32.264V32.328C175.51 32.4133 175.467 32.648 175.467 33.032L175.531 33.8C175.616 33.8427 175.531 33.992 175.275 34.248C175.275 34.248 175.318 34.376 175.403 34.632L175.723 35.08V36.36C175.723 36.36 175.766 36.4027 175.851 36.488C175.894 36.5307 175.915 36.616 175.915 36.744L175.723 37.384C175.723 37.4267 175.723 37.4693 175.723 37.512C175.766 37.5547 175.808 37.6187 175.851 37.704C175.723 37.832 175.616 37.896 175.531 37.896L175.595 38.152C175.638 38.2373 175.659 38.344 175.659 38.472V38.536C175.659 38.5787 175.638 38.6427 175.595 38.728C175.595 38.8133 175.574 38.92 175.531 39.048L176.043 39.24C176.043 39.6667 176.192 40.0933 176.491 40.52V40.648C176.491 41.1173 176.256 41.6293 175.787 42.184C175.83 42.3547 175.979 42.44 176.235 42.44C176.235 42.824 176.214 43.08 176.171 43.208L176.235 43.336C176.406 43.336 176.534 43.4427 176.619 43.656C176.704 43.784 176.704 43.976 176.619 44.232C176.619 44.4453 176.598 44.616 176.555 44.744L176.875 45.96C176.832 46.0027 176.811 46.0667 176.811 46.152L176.171 46.024C176.171 46.0667 176.128 46.1307 176.043 46.216C176.086 46.3867 176.171 46.472 176.299 46.472C176.427 46.4293 176.64 46.408 176.939 46.408C176.854 46.408 177.11 46.2587 177.707 45.96V45C177.92 45.128 178.07 45.192 178.155 45.192L178.475 45.064L178.219 44.68L178.411 44.168C178.411 44.0827 178.39 43.9973 178.347 43.912C178.347 43.8267 178.326 43.6987 178.283 43.528C178.198 43.272 178.176 43.1227 178.219 43.08L178.603 42.312C178.646 42.1413 178.667 41.9493 178.667 41.736C178.667 41.5227 178.688 41.2667 178.731 40.968L178.859 40.84C178.859 40.7547 178.859 40.6267 178.859 40.456C178.859 40.2427 178.88 40.008 178.923 39.752C178.966 39.7093 179.051 39.688 179.179 39.688C179.179 39.816 179.264 39.944 179.435 40.072C179.648 40.1573 179.883 39.88 180.139 39.24C180.267 38.984 180.352 38.7707 180.395 38.6C180.48 38.3867 180.544 38.216 180.587 38.088L180.011 37.704C180.096 37.6187 180.16 37.576 180.203 37.576L180.459 37.64C180.502 37.64 180.523 37.6613 180.523 37.704C180.566 37.7467 180.608 37.768 180.651 37.768H180.715C180.886 37.768 181.014 37.4907 181.099 36.936L180.715 36.616C180.544 36.6587 180.459 36.7653 180.459 36.936L179.691 36.68C179.819 36.2533 179.862 35.976 179.819 35.848L179.755 35.592C179.712 35.5067 179.691 35.4 179.691 35.272C179.691 35.1013 179.776 34.952 179.947 34.824C180.118 34.696 180.203 34.568 180.203 34.44L180.075 33.864C179.947 33.5653 179.904 33.3947 179.947 33.352C180.075 33.224 180.267 32.968 180.523 32.584H180.843C180.886 32.6693 180.928 32.776 180.971 32.904C181.014 33.032 181.078 33.1813 181.163 33.352L181.419 33.032C181.675 32.904 182.016 32.84 182.443 32.84C182.528 32.84 182.656 32.9253 182.827 33.096C182.998 33.2667 183.104 33.352 183.147 33.352C183.275 33.352 183.403 33.1813 183.531 32.84L183.851 32.904L184.683 33.224C184.811 33.2667 184.939 33.1813 185.067 32.968H185.323C185.494 33.1387 185.643 33.224 185.771 33.224L186.667 32.904C186.795 33.0747 186.859 33.2453 186.859 33.416C186.816 33.5867 186.752 33.8427 186.667 34.184C186.582 34.4827 186.432 34.8667 186.219 35.336C186.048 35.7627 185.75 36.0613 185.323 36.232C185.579 36.488 185.707 36.808 185.707 37.192L185.131 38.536C185.131 38.5787 185.131 38.664 185.131 38.792C185.131 38.8773 185.11 38.984 185.067 39.112C184.982 39.1973 184.875 39.368 184.747 39.624C184.79 39.7947 184.811 40.0293 184.811 40.328C184.811 40.584 184.811 40.8827 184.811 41.224L184.235 41.096C184.107 41.096 184.022 41.1813 183.979 41.352L184.107 41.672C184.15 41.7573 184.171 41.8213 184.171 41.864C184.214 41.9067 184.235 41.9493 184.235 41.992C184.278 42.1627 184.299 42.3333 184.299 42.504C184.299 42.6747 184.299 42.8667 184.299 43.08L183.979 43.784L183.851 44.744C183.723 45.128 183.488 45.384 183.147 45.512C183.318 45.6827 183.403 45.8533 183.403 46.024C183.403 46.1093 183.382 46.216 183.339 46.344C183.339 46.4293 183.318 46.536 183.275 46.664C183.147 46.792 183.062 46.92 183.019 47.048C182.976 47.2187 182.934 47.432 182.891 47.688C182.848 47.944 182.784 48.2853 182.699 48.712L182.379 49.288C182.336 49.4587 182.294 49.672 182.251 49.928C182.208 50.184 182.144 50.504 182.059 50.888C181.974 50.9307 181.824 50.952 181.611 50.952C181.568 50.952 181.547 51.0373 181.547 51.208C181.547 51.3787 181.632 51.5707 181.803 51.784L181.611 52.04C181.611 52.1253 181.611 52.232 181.611 52.36C181.611 52.488 181.59 52.6587 181.547 52.872C181.462 52.9147 181.334 53.064 181.163 53.32L181.291 54.152L181.227 54.472L180.907 54.536C180.779 54.536 180.715 54.6853 180.715 54.984V55.624L180.267 56.904V57.48L180.011 58.184L179.883 59.016L179.499 59.4L179.243 59.912C179.2 59.8693 179.094 59.848 178.923 59.848C178.88 59.8907 178.838 59.9333 178.795 59.976C178.752 59.976 178.71 60.0187 178.667 60.104L179.051 60.296C179.307 60.424 179.435 60.5307 179.435 60.616L179.243 61.064C179.2 61.2347 179.136 61.5333 179.051 61.96L179.115 62.28C179.03 62.5787 178.902 62.856 178.731 63.112C178.56 63.1547 178.347 63.304 178.091 63.56C178.219 63.8587 178.283 64.1573 178.283 64.456C178.283 64.7973 178.155 65.096 177.899 65.352L177.003 66.248L176.811 67.848C176.598 68.0187 176.363 68.1893 176.107 68.36C175.851 68.5733 175.552 68.7653 175.211 68.936L174.123 69.192C174.08 69.2347 174.038 69.2987 173.995 69.384C173.952 69.4693 173.888 69.5547 173.803 69.64H173.483C173.355 69.64 173.227 69.6187 173.099 69.576L171.627 69.64C171.542 69.64 171.435 69.64 171.307 69.64C171.179 69.6827 171.03 69.7253 170.859 69.768L170.347 69.896ZM184.555 34.632C184.555 34.5893 184.491 34.504 184.363 34.376L184.235 34.44C184.278 34.4827 184.384 34.5467 184.555 34.632ZM172.971 36.104L173.803 35.4L173.611 35.144L173.291 35.208C173.248 35.208 173.184 35.144 173.099 35.016C172.971 34.888 172.886 34.824 172.843 34.824C172.8 34.824 172.694 34.8667 172.523 34.952L172.459 35.08C172.502 35.208 172.566 35.3573 172.651 35.528C172.736 35.6987 172.843 35.8907 172.971 36.104ZM184.555 35.592C184.598 35.5067 184.576 35.4213 184.491 35.336C184.448 35.2933 184.342 35.3147 184.171 35.4C184.256 35.528 184.384 35.592 184.555 35.592ZM175.275 41.096C175.275 41.096 175.36 41.0533 175.531 40.968L175.403 40.776C175.403 40.8187 175.382 40.84 175.339 40.84C175.339 40.84 175.339 40.8613 175.339 40.904L175.275 41.096ZM172.715 43.016C172.8 43.0587 172.886 43.0373 172.971 42.952C173.014 42.9093 172.992 42.8027 172.907 42.632C172.779 42.6747 172.715 42.8027 172.715 43.016ZM175.595 47.176C175.638 47.048 175.616 46.9413 175.531 46.856C175.488 46.8133 175.382 46.8347 175.211 46.92C175.211 47.0053 175.339 47.0907 175.595 47.176ZM179.243 52.04L179.307 51.656C179.264 51.6133 179.179 51.592 179.051 51.592L178.987 51.976C179.03 52.0187 179.115 52.04 179.243 52.04ZM173.867 55.816C173.995 55.816 174.123 55.752 174.251 55.624C174.208 55.5813 174.187 55.5173 174.187 55.432L173.611 55.624C173.696 55.752 173.782 55.816 173.867 55.816ZM174.571 59.144L174.763 58.696C174.678 58.568 174.55 58.4613 174.379 58.376C174.294 58.5467 174.251 58.6747 174.251 58.76C174.251 58.8027 174.358 58.9307 174.571 59.144ZM174.187 67.4C174.272 67.3147 174.379 67.208 174.507 67.08C174.635 66.9947 174.784 66.888 174.955 66.76C174.955 66.6747 174.912 66.5893 174.827 66.504H174.507C174.507 66.504 174.422 66.4613 174.251 66.376C174.123 66.248 174.038 66.184 173.995 66.184C173.91 66.184 173.824 66.2267 173.739 66.312C173.696 66.312 173.675 66.3333 173.675 66.376C173.76 66.6747 173.931 67.016 174.187 67.4Z" fill="#7D394B"/>
<path fill-rule="evenodd" clip-rule="evenodd" d="M28.2876 0.838209C25.3823 -0.19951 23.3182 2.43716 22.0958 8.74924C14.909 15.5286 8.3089 23.1331 2.29556 31.5624C-0.566984 35.5195 0.297977 41.0442 4.23216 43.9375C11.4196 48.77 37.1 69.6553 45.7152 65.2441C51.1683 63.0917 53.8945 62.0157 53.8945 62.0157C61.1918 59.5501 58.4493 37.2821 59.1145 28.0115C63.6687 22.8404 64.5663 19.4327 61.8068 17.7879C51.2449 11.0034 40.0121 5.32356 28.2876 0.838209Z" fill="#FFA047"/>
<path d="M42.8423 66.4711C39.4084 66.4711 34.6017 64.6892 28.2891 61.0903C21.3028 57.1071 14.0683 51.8205 8.78565 47.9604C6.78937 46.5016 5.06534 45.2418 3.88769 44.4499C3.8805 44.4452 3.87332 44.4401 3.86642 44.435C-0.324751 41.3526 -1.25381 35.4157 1.79534 31.2005C7.76112 22.8378 14.4004 15.1784 21.5281 8.43617C22.3973 4.06167 23.6713 1.44894 25.4208 0.451434C26.3458 -0.0759931 27.3803 -0.141705 28.4953 0.256635C28.4995 0.258192 28.5039 0.259808 28.5081 0.261424C40.2471 4.75234 51.5591 10.472 62.132 17.2628C63.1649 17.8814 63.7732 18.7336 63.9398 19.7958C64.2641 21.8625 62.8822 24.6332 59.7164 28.2616C59.5699 30.5179 59.6141 33.5748 59.6608 36.8056C59.7356 41.9765 59.8202 47.8374 59.1944 52.6624C58.4461 58.4321 56.7817 61.6816 54.1071 62.5955L45.9689 65.8076C45.0936 66.2494 44.0533 66.4711 42.8423 66.4711ZM4.5877 43.4324C5.78508 44.2381 7.51376 45.5014 9.51426 46.9633C14.7731 50.806 21.9751 56.0689 28.9008 60.0174C36.9594 64.6118 42.5221 66.1854 45.4338 64.6944C45.4517 64.6852 45.4698 64.6769 45.4886 64.6696L53.6678 61.4413C53.6774 61.4375 53.687 61.4339 53.6968 61.4307C58.7568 59.721 58.5655 46.4868 58.4259 36.8235C58.3774 33.466 58.3317 30.2947 58.4986 27.9672C58.5083 27.8326 58.5618 27.7047 58.6511 27.6033C62.3437 23.4106 62.9019 21.1475 62.7199 19.9872C62.6108 19.2923 62.2088 18.7463 61.4907 18.3183C61.4847 18.3148 61.4789 18.3111 61.4731 18.3074C50.9711 11.5614 39.7338 5.87876 28.0733 1.41736C27.3048 1.14438 26.6372 1.17937 26.0324 1.52426C24.6088 2.336 23.4883 4.80637 22.7021 8.86664C22.6774 8.99363 22.6136 9.10967 22.5195 9.19841C15.3954 15.9187 8.76018 23.5637 2.79836 31.921C0.145242 35.5885 0.949942 40.7482 4.5877 43.4324Z" fill="#531250"/>
<g opacity="0.5">
<path fill-rule="evenodd" clip-rule="evenodd" d="M28.2876 0.838209C25.3823 -0.19951 23.3182 2.43716 22.0958 8.74924L21.6184 9.20181C22.3138 9.38778 23.0983 9.5473 23.9728 9.68017L24.0249 9.42765C24.1084 9.57964 24.4131 9.69491 24.9401 9.77378C25.317 8.49732 26.0149 6.35407 27.0331 3.3436C26.1147 4.02357 25.4106 4.8358 24.92 5.78115C25.5915 3.52675 26.2473 2.43313 26.8874 2.50025C33.9027 4.48996 45.2026 9.86735 60.7892 18.6324C60.8601 18.1697 60.9161 17.7077 60.9594 17.2466C50.6444 10.701 39.6994 5.20359 28.2876 0.838209Z" fill="white"/>
</g>
<path fill-rule="evenodd" clip-rule="evenodd" d="M13.7689 17.2639C11.0113 20.3168 8.35292 23.5081 5.79315 26.8389C26.0796 39.0425 38.6798 46.5585 43.5933 49.3865C47.3252 48.1191 49.8805 47.4338 51.2612 47.3299C55.0182 48.8528 57.5126 50.1242 58.7439 51.1447C59.1125 47.3983 59.1207 43.1513 59.0749 39.1459C57.8651 38.1905 56.5302 37.4081 55.0691 36.7987C53.6451 36.8465 52.1966 37.2608 50.7241 38.0416C43.9375 34.6878 31.6193 27.762 13.7689 17.2639Z" fill="#8F4949"/>
<g opacity="0.5">
<path fill-rule="evenodd" clip-rule="evenodd" d="M22.0405 8.80133C14.8757 15.5679 8.29384 23.1545 2.29556 31.5624C-0.566984 35.5195 0.297977 41.0442 4.23216 43.9375C5.62354 44.8729 7.70968 46.4109 10.2286 48.2492C3.59209 43.1353 1.01977 38.1926 3.63544 34.049C8.00867 27.1213 14.0371 20.3438 20.7886 13.0876C22.2314 11.5888 24.1059 11.5747 26.5514 12.7732C35.5642 17.1927 42.5976 19.9603 47.5168 21.3514L23.9652 9.68836L23.9727 9.68019C23.298 9.36891 22.6542 9.07618 22.0405 8.80133Z" fill="white"/>
</g>
<g opacity="0.3">
<path fill-rule="evenodd" clip-rule="evenodd" d="M44.1543 60.9424C45.0638 59.7762 45.7887 58.7561 46.3296 57.882L48.949 55.0179L48.9754 54.9347C50.7386 56.1313 52.412 57.702 53.995 59.6478C52.8379 58.9263 51.206 58.0177 49.0985 56.9219C49.0985 56.9219 47.209 58.9643 43.43 63.049C43.3175 62.7145 43.2227 62.3878 43.1442 62.0693C43.4199 61.7009 43.756 61.3253 44.1543 60.9424ZM42.506 65.7086C43.2101 65.7108 43.9256 65.6743 44.5387 65.5782C46.4081 64.2135 49.4559 62.6224 53.6822 60.8048C56.6678 59.7822 58.0271 50.8957 57.7615 34.147V34.1467V34.1367L57.7558 33.8031C57.7772 31.1943 59.3162 27.7828 62.3741 23.5694C64.0217 20.1617 63.4934 18.5159 60.7892 18.6324C62.6542 19.4481 62.1278 21.983 59.2087 26.2372C58.5002 26.9916 57.7564 28.6701 56.9763 31.2726V31.2729C51.4798 42.359 48.6902 50.1145 47.4112 54.196C45.2686 56.1194 43.6912 57.8208 42.5179 59.292V59.2923C42.4519 59.3745 42.3879 59.4559 42.325 59.5366C41.8834 60.0256 41.2572 60.2977 40.6108 60.2977C38.5932 59.5501 38.3318 57.9269 39.8268 55.4284L40.0171 55.12L40.0216 55.1138C42.8464 50.5404 46.3459 44.9501 50.52 38.3428C52.5766 35.5324 54.8681 31.918 57.3952 27.4977C57.6672 24.4046 58.4662 21.8295 59.7922 19.7729C57.4574 22.9152 53.5879 22.5132 47.6311 19.6271C38.8362 15.3657 33.7148 13.865 32.7682 14.04C39.6226 17.0206 45.0889 19.6171 49.1676 21.8304C48.0412 21.3141 46.8056 20.788 45.4614 20.2525C54.941 26.8328 51.5904 31.7252 41.6529 45.6816C29.0024 56.3876 18.5749 53.6473 5.73911 44.9869C11.7801 49.292 24.7095 59.3074 34.7902 63.7095L35.0742 63.2327C37.2225 64.6687 39.8752 65.8129 42.506 65.7086Z" fill="#531250"/>
</g>
<path d="M62.7691 20.3065C62.6542 20.0681 62.5349 19.775 62.423 19.6152C62.369 19.5187 62.3137 19.4236 62.2428 19.3435C62.1781 19.2546 62.1127 19.1695 62.0436 19.1164C61.9067 18.9691 61.7848 18.9365 61.678 18.9123C61.5769 18.8812 61.4274 18.9487 61.2628 19.0319C61.0988 19.1393 60.9236 19.2779 60.7647 19.4606C60.6013 19.6318 60.4474 19.8322 60.3042 20.0429C60.0153 20.4628 59.7558 20.9224 59.5228 21.3985C59.0573 22.353 58.6735 23.3637 58.3632 24.3917C58.2074 24.9052 58.0749 25.4256 57.9706 25.9448C57.9185 26.2045 57.8776 26.463 57.8481 26.7174C57.8255 26.9611 57.8079 27.2334 57.8399 27.3996L57.8431 27.4169C57.8657 27.5337 57.8394 27.6493 57.7796 27.7416L40.3407 54.5879L57.0108 27.2536L56.9504 27.5956C56.8745 27.219 56.904 26.936 56.9172 26.6329C56.9429 26.3402 56.9799 26.054 57.0283 25.773C57.1244 25.2105 57.2488 24.6598 57.3971 24.1168C57.6923 23.0298 58.0597 21.9657 58.5296 20.9283C58.7658 20.4101 59.0328 19.9 59.3532 19.4044C59.512 19.1563 59.6867 18.9122 59.8952 18.6789C60.0931 18.4423 60.3381 18.2184 60.6308 18.0209C60.9367 17.8421 61.3161 17.6537 61.7735 17.6999C62.2069 17.7354 62.6152 17.9439 62.8651 18.1889C63.0134 18.3073 63.1208 18.4361 63.2238 18.5661C63.3357 18.693 63.4255 18.8312 63.5103 18.9725C63.7069 19.2703 63.7936 19.4911 63.9261 19.743C64.0913 20.0577 63.9701 20.4465 63.656 20.612C63.3413 20.7772 62.9525 20.6566 62.7867 20.3419C62.7842 20.3363 62.781 20.3309 62.7785 20.3253L62.7691 20.3065Z" fill="#531250"/>
<path d="M54.867 25.613C54.7749 25.613 54.6813 25.5923 54.5932 25.5485L21.8216 9.30251C21.5161 9.15104 21.3911 8.78051 21.5426 8.475C21.694 8.16943 22.0643 8.04441 22.3701 8.19605L55.1417 24.4421C55.4472 24.5935 55.5721 24.964 55.4207 25.2696C55.3129 25.487 55.0942 25.613 54.867 25.613Z" fill="#531250"/>
<path d="M48.3528 54.8565C48.3528 54.8565 48.7969 53.3982 49.4628 51.211C49.8353 50.123 50.297 48.8598 50.7763 47.506C51.0238 46.8324 51.2537 46.1241 51.5345 45.4282C51.8064 44.7281 52.0823 44.0166 52.3586 43.3056C52.635 42.5945 52.9107 41.8834 53.1827 41.1833C53.4585 40.4852 53.7135 39.7917 53.9893 39.1321C54.5308 37.8092 55.0358 36.5745 55.4693 35.5161C56.3348 33.4001 56.9121 31.9896 56.9121 31.9896C56.9121 31.9896 56.4071 33.4278 55.6495 35.5849C55.2707 36.6628 54.8292 37.9207 54.3555 39.2684C54.1137 39.9402 53.8944 40.6453 53.6545 41.3555C53.4189 42.0669 53.1796 42.7899 52.9403 43.5125C52.701 44.2353 52.4616 44.9576 52.2267 45.669C51.9811 46.3782 51.7907 47.0862 51.5797 47.7652C51.1733 49.1273 50.7819 50.3909 50.4685 51.483C49.9144 53.7007 49.5451 55.1794 49.5451 55.1794L49.5432 55.1863C49.4603 55.5174 49.1249 55.7187 48.7939 55.6358C48.4634 55.5532 48.2618 55.2177 48.3447 54.8866C48.3472 54.8772 48.3503 54.8659 48.3528 54.8565Z" fill="#531250"/>
<path d="M49.4258 55.4098C49.4258 55.4098 47.7775 57.1665 46.1292 58.9231C45.7064 59.3557 45.3345 59.8202 44.9627 60.2429C44.5952 60.6698 44.2529 61.0677 43.9589 61.4091C43.3696 62.0937 42.9764 62.5504 42.9764 62.5504C42.9764 62.5504 43.3075 62.0476 43.8043 61.2935C44.0537 60.9153 44.3439 60.4741 44.6555 60.0014C44.972 59.5321 45.2906 59.0108 45.6517 58.5312C47.0619 56.5785 48.4722 54.6259 48.4722 54.6259C48.6713 54.3479 49.0576 54.2845 49.3353 54.4836C49.6129 54.6827 49.677 55.0693 49.4778 55.347C49.4628 55.3678 49.4427 55.3916 49.4258 55.4098Z" fill="#531250"/>
<path d="M49.3108 54.5175C49.3108 54.5175 50.5527 55.6027 51.7939 56.6878C52.1087 56.9507 52.3951 57.2648 52.6765 57.5315C52.9535 57.8041 53.2123 58.0585 53.434 58.2765C53.8744 58.7102 54.1677 58.9995 54.1677 58.9995C54.1677 58.9995 53.8254 58.7699 53.3109 58.4253C53.0559 58.2545 52.7576 58.0547 52.4384 57.8412C52.1143 57.6333 51.7939 57.3898 51.4314 57.1879C50.0093 56.353 48.5872 55.5182 48.5872 55.5182C48.2913 55.3445 48.1927 54.9645 48.366 54.669C48.5394 54.3737 48.9195 54.2748 49.2147 54.4481C49.248 54.4676 49.2832 54.4937 49.3108 54.5175Z" fill="#531250"/>
<path d="M26.4672 46.4322C33.2613 46.4322 38.769 41.0972 38.769 34.516C38.769 27.9349 33.2613 22.5998 26.4672 22.5998C19.673 22.5998 14.1653 27.9349 14.1653 34.516C14.1653 41.0972 19.673 46.4322 26.4672 46.4322Z" fill="white"/>
<path d="M26.4671 47.0498C19.3434 47.0498 13.5478 41.4271 13.5478 34.5161C13.5478 27.605 19.3434 21.9824 26.4671 21.9824C33.5908 21.9824 39.3864 27.605 39.3864 34.5161C39.3864 41.4271 33.5908 47.0498 26.4671 47.0498ZM26.4671 23.2174C20.0243 23.2174 14.7828 28.2859 14.7828 34.5161C14.7828 40.7463 20.0243 45.8148 26.4671 45.8148C32.91 45.8148 38.1515 40.7463 38.1515 34.5161C38.1514 28.2859 32.9099 23.2174 26.4671 23.2174Z" fill="#531250"/>
<path fill-rule="evenodd" clip-rule="evenodd" d="M27.6782 40.715C31.1049 39.7919 28.8077 35.076 26.0858 33.8738C23.521 32.7412 18.8432 33.8439 20.5373 37.0133C21.6416 39.0793 23.2221 37.8123 24.1699 38.2768C25.1832 38.7731 25.116 41.4057 27.6782 40.715Z" fill="#531250"/>
<path d="M26.8889 40.985C25.6987 40.985 25.2237 40.0999 24.8288 39.3641C24.6069 38.9507 24.3974 38.56 24.1021 38.4155C23.8225 38.2784 23.45 38.3165 23.0554 38.3567C22.2213 38.4418 21.1824 38.5479 20.4012 37.0861C19.6997 35.7737 20.0974 34.9108 20.5545 34.418C21.7431 33.1369 24.4878 32.9996 26.1483 33.7326C28.0657 34.5796 29.6856 37.0008 29.5469 38.8125C29.4912 39.5387 29.129 40.4841 27.7183 40.864C27.408 40.9477 27.1334 40.985 26.8889 40.985ZM23.5934 38.0102C23.822 38.0102 24.0386 38.0406 24.2379 38.1383C24.6223 38.3265 24.8547 38.7596 25.1008 39.2181C25.5691 40.0908 26.0533 40.993 27.6381 40.566C28.6167 40.3024 29.1702 39.6878 29.2391 38.7889C29.3667 37.1215 27.804 34.8015 26.0235 34.015C24.3193 33.2623 21.7713 33.5601 20.7809 34.6279C20.2232 35.229 20.186 36.0287 20.6734 36.9405C21.3572 38.2196 22.2043 38.1334 23.0242 38.0496C23.2197 38.0297 23.4103 38.0102 23.5934 38.0102Z" fill="#531250"/>
<path fill-rule="evenodd" clip-rule="evenodd" d="M19.4531 29.4996C20.0875 29.4996 20.6014 30.2932 20.6014 31.2728C20.6014 32.2522 20.0875 33.0458 19.4531 33.0458C18.8193 33.0458 18.3048 32.2522 18.3048 31.2728C18.3048 30.2932 18.8193 29.4996 19.4531 29.4996Z" fill="#531250"/>
<path d="M19.4531 33.2002C18.7348 33.2002 18.1504 32.3356 18.1504 31.2729C18.1504 30.1919 18.7227 29.3452 19.4531 29.3452C20.1836 29.3452 20.7557 30.1919 20.7557 31.2729C20.7558 32.3536 20.1836 33.2002 19.4531 33.2002ZM19.4531 29.6539C18.9144 29.6539 18.4592 30.3953 18.4592 31.2729C18.4592 32.1502 18.9144 32.8915 19.4531 32.8915C19.9919 32.8915 20.447 32.1502 20.447 31.2729C20.447 30.3953 19.9919 29.6539 19.4531 29.6539Z" fill="#531250"/>
<path fill-rule="evenodd" clip-rule="evenodd" d="M34.24 35.8387C34.0126 35.2469 33.0873 35.0515 32.1733 35.4033C31.2593 35.7548 30.7028 36.5195 30.9302 37.1116C31.1576 37.7033 32.0835 37.8983 32.9974 37.5469C33.9114 37.1951 34.468 36.4304 34.24 35.8387Z" fill="#531250"/>
<path d="M32.0968 37.8763C31.9508 37.8763 31.8091 37.8623 31.6745 37.834C31.231 37.7406 30.9155 37.5038 30.786 37.167C30.5242 36.4851 31.1093 35.6471 32.1179 35.2592C32.5871 35.0786 33.0764 35.0276 33.4959 35.1161C33.9392 35.2095 34.2545 35.4464 34.384 35.7831C34.5138 36.1198 34.4385 36.507 34.1718 36.8735C33.9197 37.2199 33.5224 37.5102 33.0529 37.6909C32.734 37.8136 32.4059 37.8763 32.0968 37.8763ZM33.0728 35.3822C32.8022 35.3822 32.5125 35.4382 32.2288 35.5473C31.4097 35.8623 30.8811 36.5532 31.0742 37.0564C31.1648 37.2919 31.4006 37.4609 31.7382 37.5319C32.0999 37.6081 32.5275 37.5624 32.9421 37.4028C33.3566 37.2433 33.7048 36.9908 33.9221 36.6919C34.1251 36.4131 34.1868 36.1297 34.0961 35.8941C34.0959 35.8941 34.0959 35.8941 34.0959 35.894C34.0054 35.6583 33.7696 35.4892 33.4322 35.4182C33.3181 35.3941 33.1974 35.3822 33.0728 35.3822Z" fill="#531250"/>
<path fill-rule="evenodd" clip-rule="evenodd" d="M25.2485 26.8588C26.263 27.0023 26.9244 28.2592 26.7254 29.6654C26.5262 31.0722 25.5425 32.0957 24.5274 31.9522C23.5123 31.8087 22.8515 30.5517 23.0506 29.1453C23.2497 27.7388 24.2334 26.7149 25.2485 26.8588Z" fill="#531250"/>
<path d="M24.7155 32.1199C24.6458 32.1199 24.5759 32.115 24.5058 32.1051C23.9643 32.0285 23.4997 31.6695 23.197 31.0942C22.9031 30.5356 22.797 29.8358 22.8978 29.1237C22.9985 28.4115 23.2949 27.7688 23.7322 27.3138C24.1827 26.8451 24.728 26.6294 25.2702 26.706C25.8112 26.7825 26.2758 27.1414 26.5785 27.7167C26.8725 28.2753 26.9788 28.9751 26.8781 29.687C26.681 31.0802 25.7357 32.1197 24.7155 32.1199ZM25.0571 26.9996C24.6717 26.9996 24.2859 27.1831 23.9548 27.5276C23.5621 27.9363 23.2952 28.5184 23.2035 29.1669C23.1116 29.8154 23.2064 30.4488 23.4702 30.9505C23.7255 31.4356 24.1084 31.7371 24.5489 31.7994C25.4798 31.9315 26.3856 30.9637 26.5725 29.6438C26.6642 28.9955 26.5694 28.3622 26.3053 27.8605C26.0501 27.3753 25.6671 27.0739 25.2269 27.0116C25.2268 27.0116 25.2268 27.0116 25.2268 27.0116C25.1703 27.0036 25.1137 26.9996 25.0571 26.9996Z" fill="#531250"/>
<path fill-rule="evenodd" clip-rule="evenodd" d="M28.2505 33.4422C27.447 32.8055 27.5117 31.3869 28.3943 30.2738C29.2769 29.161 30.6438 28.7743 31.4465 29.4113C32.2499 30.0482 32.1852 31.4666 31.3027 32.5797C30.4201 33.6928 29.0539 34.0791 28.2505 33.4422Z" fill="#531250"/>
<path d="M29.1774 33.9008C28.7981 33.9008 28.4433 33.792 28.1545 33.5631C27.726 33.2236 27.5064 32.679 27.5359 32.0296C27.5646 31.3991 27.8265 30.7414 28.2733 30.1778C28.7203 29.6143 29.3009 29.2095 29.9084 29.0378C30.5341 28.8609 31.1145 28.9506 31.5424 29.2904C31.9709 29.63 32.1905 30.1746 32.161 30.8239C32.1323 31.4545 31.8705 32.112 31.4237 32.6756C30.8001 33.4619 29.9392 33.9008 29.1774 33.9008ZM30.5166 29.2583C30.3495 29.2583 30.1736 29.2836 29.9923 29.3349C29.4468 29.489 28.9221 29.8566 28.5151 30.3696C28.1083 30.8829 27.87 31.4774 27.8442 32.0437C27.8194 32.5912 27.9977 33.045 28.3463 33.3212V33.3212C29.0816 33.9041 30.3535 33.5285 31.1817 32.4837C31.5886 31.9706 31.8269 31.3762 31.8527 30.8099C31.8775 30.2624 31.6992 29.8086 31.3506 29.5322C31.122 29.3508 30.8356 29.2583 30.5166 29.2583Z" fill="#531250"/>
<path d="M42.8423 66.4711C39.4084 66.4711 34.6017 64.6892 28.2891 61.0903C21.3028 57.1071 14.0683 51.8205 8.78565 47.9604C6.78937 46.5016 5.06534 45.2418 3.88769 44.4499C3.8805 44.4452 3.87332 44.4401 3.86642 44.435C-0.324751 41.3526 -1.25381 35.4157 1.79534 31.2005C7.76112 22.8378 14.4004 15.1784 21.5281 8.43617C22.3973 4.06167 23.6713 1.44894 25.4208 0.451434C26.3458 -0.0759931 27.3803 -0.141705 28.4953 0.256635C28.4995 0.258192 28.5039 0.259808 28.5081 0.261424C40.2471 4.75234 51.5591 10.472 62.132 17.2628C63.1649 17.8814 63.7732 18.7336 63.9398 19.7958C64.2641 21.8625 62.8822 24.6332 59.7164 28.2616C59.5699 30.5179 59.6141 33.5748 59.6608 36.8056C59.7356 41.9765 59.8202 47.8374 59.1944 52.6624C58.4461 58.4321 56.7817 61.6816 54.1071 62.5955L45.9689 65.8076C45.0936 66.2494 44.0533 66.4711 42.8423 66.4711ZM4.5877 43.4324C5.78508 44.2381 7.51376 45.5014 9.51426 46.9633C14.7731 50.806 21.9751 56.0689 28.9008 60.0174C36.9594 64.6118 42.5221 66.1854 45.4338 64.6944C45.4517 64.6852 45.4698 64.6769 45.4886 64.6696L53.6678 61.4413C53.6774 61.4375 53.687 61.4339 53.6968 61.4307C58.7568 59.721 58.5655 46.4868 58.4259 36.8235C58.3774 33.466 58.3317 30.2947 58.4986 27.9672C58.5083 27.8326 58.5618 27.7047 58.6511 27.6033C62.3437 23.4106 62.9019 21.1475 62.7199 19.9872C62.6108 19.2923 62.2088 18.7463 61.4907 18.3183C61.4847 18.3148 61.4789 18.3111 61.4731 18.3074C50.9711 11.5614 39.7338 5.87876 28.0733 1.41736C27.3048 1.14438 26.6372 1.17937 26.0324 1.52426C24.6088 2.336 23.4883 4.80637 22.7021 8.86664C22.6774 8.99363 22.6136 9.10967 22.5195 9.19841C15.3954 15.9187 8.76018 23.5637 2.79836 31.921C0.145242 35.5885 0.949942 40.7482 4.5877 43.4324Z" fill="#531250"/>
<g opacity="0.5">
<path fill-rule="evenodd" clip-rule="evenodd" d="M26.8001 18.5014L24.9803 17.0347C23.9312 16.1892 22.3822 16.3556 21.5367 17.4044L8.89122 33.0898C8.04567 34.1385 8.21214 35.6879 9.2612 36.5337L11.0803 38.0001C12.1294 38.8459 13.679 38.6795 14.5245 37.6311L27.1694 21.9456C28.0149 20.8966 27.8491 19.3473 26.8001 18.5014Z" fill="white"/>
</g>
<path d="M24.3527 9.58247L26.9037 3.72678L25.5274 9.96501C25.4533 10.2995 25.1222 10.5109 24.7875 10.4371C24.4532 10.3633 24.2415 10.0322 24.3157 9.69774C24.3239 9.65883 24.3377 9.61767 24.3527 9.58247Z" fill="#50124C"/>
<path d="M27.3993 11.1899L29.9497 5.33421L28.574 11.5725C28.4999 11.907 28.1688 12.1184 27.834 12.0445C27.4999 11.9707 27.2882 11.6397 27.3623 11.3052C27.3705 11.2663 27.3843 11.2251 27.3993 11.1899Z" fill="#50124C"/>
<path d="M30.6922 12.83L33.2425 6.97466L31.8668 13.2126C31.7927 13.5471 31.4616 13.7588 31.1268 13.685C30.7927 13.6112 30.581 13.2798 30.6551 12.9453C30.6632 12.9067 30.6771 12.8652 30.6922 12.83Z" fill="#50124C"/>
<path d="M33.9485 14.4583L36.4995 8.60291L35.1232 14.8408C35.0491 15.1756 34.718 15.387 34.3832 15.3132C34.049 15.2394 33.8373 14.908 33.9114 14.5736C33.9196 14.5349 33.9334 14.4935 33.9485 14.4583Z" fill="#50124C"/>
<path d="M37.5064 16.1468L40.0567 10.2914L38.6811 16.5293C38.6069 16.8638 38.2759 17.0755 37.9411 17.0017C37.6069 16.9278 37.3952 16.5965 37.4694 16.262C37.4775 16.2234 37.4914 16.1819 37.5064 16.1468Z" fill="#50124C"/>
<path d="M40.7025 17.7752L43.2535 11.9195L41.8771 18.1578C41.803 18.4923 41.472 18.7037 41.1371 18.6298C40.803 18.556 40.5913 18.225 40.6654 17.8905C40.6736 17.8516 40.6874 17.8104 40.7025 17.7752Z" fill="#50124C"/>
<path d="M44.1775 19.5356L46.7278 13.6799L45.3521 19.9182C45.278 20.2527 44.947 20.4641 44.6122 20.3902C44.278 20.3165 44.0663 19.9855 44.1404 19.6509C44.1486 19.612 44.1624 19.5708 44.1775 19.5356Z" fill="#50124C"/>
<path d="M47.8183 21.2725L50.3693 15.4171L48.9929 21.6551C48.9188 21.9896 48.5877 22.2013 48.2529 22.1271C47.9188 22.0533 47.7071 21.7223 47.7812 21.3878C47.7894 21.3489 47.8032 21.3077 47.8183 21.2725Z" fill="#50124C"/>
<path d="M51.8586 23.3228L54.4096 17.4675L53.0333 23.7054C52.9591 24.0399 52.6281 24.2516 52.2933 24.1774C51.9592 24.1036 51.7475 23.7726 51.8216 23.4381C51.8298 23.3992 51.8436 23.358 51.8586 23.3228Z" fill="#50124C"/>
<g opacity="0.2">
<path fill-rule="evenodd" clip-rule="evenodd" d="M31.729 69.8533C45.9572 69.8533 57.4913 71.3589 57.4913 73.2172C57.4913 75.0745 45.9572 76.581 31.729 76.581C17.5008 76.581 5.96631 75.0745 5.96631 73.2172C5.96631 71.3589 17.5008 69.8533 31.729 69.8533Z" fill="#531250"/>
</g>
</svg>
